<svg width="67" height="64" viewBox="0 0 67 64" fill="none" xmlns="http://www.w3.org/2000/svg">
<rect width="66" height="63" transform="translate(0.649902 0.25)" fill="white"/>
<path d="M39.1494 23.875H32.2744C29.9962 23.875 28.1494 25.6379 28.1494 27.8125C28.1494 29.9871 29.9962 31.75 32.2744 31.75H35.0244C37.3026 31.75 39.1494 33.5129 39.1494 35.6875C39.1494 37.8621 37.3026 39.625 35.0244 39.625H28.1494M33.6494 21.25V23.875M33.6494 39.625V42.25M50.1494 31.75H50.1769M17.1494 31.75H17.1769M6.14941 21.775L6.14941 41.725C6.14941 44.6653 6.14941 46.1354 6.74888 47.2584C7.27618 48.2463 8.11757 49.0494 9.15247 49.5528C10.329 50.125 11.8691 50.125 14.9494 50.125L52.3494 50.125C55.4297 50.125 56.9698 50.125 58.1464 49.5528C59.1813 49.0494 60.0226 48.2463 60.5499 47.2584C61.1494 46.1354 61.1494 44.6653 61.1494 41.725V21.775C61.1494 18.8347 61.1494 17.3646 60.55 16.2416C60.0226 15.2537 59.1813 14.4506 58.1464 13.9472C56.9698 13.375 55.4297 13.375 52.3494 13.375L14.9494 13.375C11.8691 13.375 10.329 13.375 9.15247 13.9472C8.11758 14.4506 7.27618 15.2537 6.74888 16.2415C6.14941 17.3646 6.14941 18.8347 6.14941 21.775ZM51.5244 31.75C51.5244 32.4749 50.9088 33.0625 50.1494 33.0625C49.39 33.0625 48.7744 32.4749 48.7744 31.75C48.7744 31.0251 49.39 30.4375 50.1494 30.4375C50.9088 30.4375 51.5244 31.0251 51.5244 31.75ZM18.5244 31.75C18.5244 32.4749 17.9088 33.0625 17.1494 33.0625C16.39 33.0625 15.7744 32.4749 15.7744 31.75C15.7744 31.0251 16.39 30.4375 17.1494 30.4375C17.9088 30.4375 18.5244 31.0251 18.5244 31.75Z" stroke="#005809" stroke-width="3" stroke-linecap="round" stroke-linejoin="round"/>
</svg>
