<svg width="67" height="64" viewBox="0 0 67 64" fill="none" xmlns="http://www.w3.org/2000/svg">
<rect width="66" height="63" transform="translate(0.650146 0.25)" fill="white"/>
<path d="M39.1504 23.875H32.2754C29.9972 23.875 28.1504 25.6379 28.1504 27.8125C28.1504 29.9871 29.9972 31.75 32.2754 31.75H35.0254C37.3036 31.75 39.1504 33.5129 39.1504 35.6875C39.1504 37.8621 37.3036 39.625 35.0254 39.625H28.1504M33.6504 21.25V23.875M33.6504 39.625V42.25M50.1504 31.75H50.1779M17.1504 31.75H17.1779M6.15039 21.775L6.15039 41.725C6.15039 44.6653 6.15039 46.1354 6.74985 47.2584C7.27716 48.2463 8.11855 49.0494 9.15344 49.5528C10.33 50.125 11.8701 50.125 14.9504 50.125L52.3504 50.125C55.4307 50.125 56.9708 50.125 58.1473 49.5528C59.1822 49.0494 60.0236 48.2463 60.5509 47.2584C61.1504 46.1354 61.1504 44.6653 61.1504 41.725V21.775C61.1504 18.8347 61.1504 17.3646 60.5509 16.2416C60.0236 15.2537 59.1822 14.4506 58.1473 13.9472C56.9708 13.375 55.4307 13.375 52.3504 13.375L14.9504 13.375C11.8701 13.375 10.33 13.375 9.15344 13.9472C8.11855 14.4506 7.27716 15.2537 6.74986 16.2415C6.15039 17.3646 6.15039 18.8347 6.15039 21.775ZM51.5254 31.75C51.5254 32.4749 50.9098 33.0625 50.1504 33.0625C49.391 33.0625 48.7754 32.4749 48.7754 31.75C48.7754 31.0251 49.391 30.4375 50.1504 30.4375C50.9098 30.4375 51.5254 31.0251 51.5254 31.75ZM18.5254 31.75C18.5254 32.4749 17.9098 33.0625 17.1504 33.0625C16.391 33.0625 15.7754 32.4749 15.7754 31.75C15.7754 31.0251 16.391 30.4375 17.1504 30.4375C17.9098 30.4375 18.5254 31.0251 18.5254 31.75Z" stroke="#005809" stroke-width="3" stroke-linecap="round" stroke-linejoin="round"/>
</svg>
