<svg width="37" height="37" viewBox="0 0 37 37" fill="none" xmlns="http://www.w3.org/2000/svg">
<path d="M31.0002 12.75V25.05C31.0002 27.5702 31.0002 28.8304 30.5098 29.793C30.0783 30.6397 29.3899 31.3281 28.5432 31.7595C27.5806 32.25 26.3205 32.25 23.8002 32.25H12.7002C10.18 32.25 8.91989 32.25 7.95729 31.7595C7.11056 31.3281 6.42214 30.6397 5.99071 29.793C5.50024 28.8304 5.50024 27.5702 5.50024 25.05V12.75M5.65024 5.25H30.8502C31.6903 5.25 32.1104 5.25 32.4312 5.41349C32.7135 5.5573 32.9429 5.78677 33.0868 6.06901C33.2502 6.38988 33.2502 6.80992 33.2502 7.65V10.35C33.2502 11.1901 33.2502 11.6101 33.0868 11.931C32.9429 12.2132 32.7135 12.4427 32.4312 12.5865C32.1104 12.75 31.6903 12.75 30.8502 12.75H5.65025C4.81017 12.75 4.39013 12.75 4.06926 12.5865C3.78702 12.4427 3.55754 12.2132 3.41373 11.931C3.25024 11.6101 3.25024 11.1901 3.25024 10.35V7.65C3.25024 6.80992 3.25024 6.38988 3.41373 6.06901C3.55754 5.78677 3.78702 5.5573 4.06926 5.41349C4.39013 5.25 4.81017 5.25 5.65024 5.25ZM14.6502 18H21.8502C22.6903 18 23.1104 18 23.4312 18.1635C23.7135 18.3073 23.9429 18.5368 24.0868 18.819C24.2502 19.1399 24.2502 19.5599 24.2502 20.4V21.6C24.2502 22.4401 24.2502 22.8601 24.0868 23.181C23.9429 23.4632 23.7135 23.6927 23.4312 23.8365C23.1104 24 22.6903 24 21.8502 24H14.6502C13.8102 24 13.3901 24 13.0693 23.8365C12.787 23.6927 12.5575 23.4632 12.4137 23.181C12.2502 22.8601 12.2502 22.4401 12.2502 21.6V20.4C12.2502 19.5599 12.2502 19.1399 12.4137 18.819C12.5575 18.5368 12.787 18.3073 13.0693 18.1635C13.3901 18 13.8102 18 14.6502 18Z" stroke="#8E9399" stroke-width="3" stroke-linecap="round" stroke-linejoin="round"/>
</svg>
