<svg width="37" height="37" viewBox="0 0 37 37" fill="none" xmlns="http://www.w3.org/2000/svg">
<path d="M31.5 12.75V25.05C31.5 27.5702 31.5 28.8304 31.0095 29.793C30.5781 30.6397 29.8897 31.3281 29.043 31.7595C28.0804 32.25 26.8202 32.25 24.3 32.25H13.2C10.6798 32.25 9.41965 32.25 8.45704 31.7595C7.61031 31.3281 6.9219 30.6397 6.49047 29.793C6 28.8304 6 27.5702 6 25.05V12.75M6.15 5.25H31.35C32.1901 5.25 32.6101 5.25 32.931 5.41349C33.2132 5.5573 33.4427 5.78677 33.5865 6.06901C33.75 6.38988 33.75 6.80992 33.75 7.65V10.35C33.75 11.1901 33.75 11.6101 33.5865 11.931C33.4427 12.2132 33.2132 12.4427 32.931 12.5865C32.6101 12.75 32.1901 12.75 31.35 12.75H6.15C5.30992 12.75 4.88988 12.75 4.56901 12.5865C4.28677 12.4427 4.0573 12.2132 3.91349 11.931C3.75 11.6101 3.75 11.1901 3.75 10.35V7.65C3.75 6.80992 3.75 6.38988 3.91349 6.06901C4.0573 5.78677 4.28677 5.5573 4.56901 5.41349C4.88988 5.25 5.30992 5.25 6.15 5.25ZM15.15 18H22.35C23.1901 18 23.6101 18 23.931 18.1635C24.2132 18.3073 24.4427 18.5368 24.5865 18.819C24.75 19.1399 24.75 19.5599 24.75 20.4V21.6C24.75 22.4401 24.75 22.8601 24.5865 23.181C24.4427 23.4632 24.2132 23.6927 23.931 23.8365C23.6101 24 23.1901 24 22.35 24H15.15C14.3099 24 13.8899 24 13.569 23.8365C13.2868 23.6927 13.0573 23.4632 12.9135 23.181C12.75 22.8601 12.75 22.4401 12.75 21.6V20.4C12.75 19.5599 12.75 19.1399 12.9135 18.819C13.0573 18.5368 13.2868 18.3073 13.569 18.1635C13.8899 18 14.3099 18 15.15 18Z" stroke="#8E9399" stroke-width="3" stroke-linecap="round" stroke-linejoin="round"/>
</svg>
