<svg width="54" height="38" viewBox="0 0 54 38" fill="none" xmlns="http://www.w3.org/2000/svg">
<g filter="url(#filter0_d_177_2146)">
<path d="M4.24414 12.8233C4.24414 6.19584 9.61673 0.823242 16.2441 0.823242H37.2918C43.9192 0.823242 49.2918 6.19582 49.2918 12.8232V17.0457C49.2918 23.6731 43.9192 29.0457 37.2918 29.0457H16.2441C9.61673 29.0457 4.24414 23.6731 4.24414 17.0457V12.8233Z" fill="#979797" shape-rendering="crispEdges"/>
<g filter="url(#filter1_d_177_2146)">
<path d="M27.832 3.01221L30.898 11.3312H40.8198L32.7929 16.4726L35.8589 24.7916L27.832 19.6502L19.8051 24.7916L22.8711 16.4726L14.8442 11.3312H24.766L27.832 3.01221Z" fill="#D9D9D9"/>
</g>
</g>
<defs>
<filter id="filter0_d_177_2146" x="0.244141" y="0.823242" width="53.0476" height="36.2224" filterUnits="userSpaceOnUse" color-interpolation-filters="sRGB">
<feFlood flood-opacity="0" result="BackgroundImageFix"/>
<feColorMatrix in="SourceAlpha" type="matrix" values="0 0 0 0 0 0 0 0 0 0 0 0 0 0 0 0 0 0 127 0" result="hardAlpha"/>
<feOffset dy="4"/>
<feGaussianBlur stdDeviation="2"/>
<feComposite in2="hardAlpha" operator="out"/>
<feColorMatrix type="matrix" values="0 0 0 0 0 0 0 0 0 0 0 0 0 0 0 0 0 0 0.25 0"/>
<feBlend mode="normal" in2="BackgroundImageFix" result="effect1_dropShadow_177_2146"/>
<feBlend mode="normal" in="SourceGraphic" in2="effect1_dropShadow_177_2146" result="shape"/>
</filter>
<filter id="filter1_d_177_2146" x="10.8442" y="3.01221" width="33.9756" height="29.7794" filterUnits="userSpaceOnUse" color-interpolation-filters="sRGB">
<feFlood flood-opacity="0" result="BackgroundImageFix"/>
<feColorMatrix in="SourceAlpha" type="matrix" values="0 0 0 0 0 0 0 0 0 0 0 0 0 0 0 0 0 0 127 0" result="hardAlpha"/>
<feOffset dy="4"/>
<feGaussianBlur stdDeviation="2"/>
<feComposite in2="hardAlpha" operator="out"/>
<feColorMatrix type="matrix" values="0 0 0 0 0 0 0 0 0 0 0 0 0 0 0 0 0 0 0.25 0"/>
<feBlend mode="normal" in2="BackgroundImageFix" result="effect1_dropShadow_177_2146"/>
<feBlend mode="normal" in="SourceGraphic" in2="effect1_dropShadow_177_2146" result="shape"/>
</filter>
</defs>
</svg>
