<svg width="90" height="90" viewBox="0 0 90 90" fill="none" xmlns="http://www.w3.org/2000/svg">
<rect width="90" height="90" rx="15" fill="#F4F4F9"/>
<g clip-path="url(#clip0_178_2263)">
<path d="M59.102 40.6422C58.4459 40.6606 57.9205 41.1974 57.9205 41.8569C57.9205 42.5165 58.4459 43.0533 59.1008 43.0717H59.1031C59.7593 43.0533 60.2846 42.5165 60.2846 41.8569C60.2846 41.1974 59.7593 40.6606 59.1043 40.6422H59.102ZM57.8873 49.1442V49.1775C57.8873 49.8485 58.431 50.3922 59.102 50.3922C59.773 50.3922 60.3167 49.8485 60.3167 49.1775C60.3167 49.166 60.3167 49.1545 60.3167 49.1419V49.1431V45.0939C60.3167 45.0836 60.3167 45.0721 60.3167 45.0607C60.3167 44.3896 59.773 43.8459 59.102 43.8459C58.431 43.8459 57.8873 44.3896 57.8873 45.0607V45.0962V45.0939V49.1442ZM55.054 40.6422C55.7101 40.6606 56.2355 41.1974 56.2355 41.8569C56.2355 42.5165 55.7101 43.0533 55.0552 43.0717H55.0529H50.6V44.6913H53.4332C54.0893 44.7097 54.6147 45.2465 54.6147 45.9061C54.6147 46.5656 54.0893 47.1024 53.4344 47.1208H53.4321H50.5988V49.1453V49.1786C50.5988 49.8496 50.0551 50.3934 49.3841 50.3934C48.7131 50.3934 48.1694 49.8496 48.1694 49.1786C48.1694 49.1671 48.1694 49.1557 48.1694 49.1431V49.1453V41.8569C48.1694 41.8558 48.1694 41.8535 48.1694 41.8512C48.1694 41.1836 48.7108 40.6422 49.3784 40.6422H49.3841H55.054ZM64.3647 43.0705V47.9283C64.3647 51.506 61.4638 54.4058 57.8873 54.4058H55.4578C52.9056 57.387 49.1375 59.2636 44.9324 59.2636C40.7273 59.2636 36.9592 57.387 34.4219 54.4241L34.4058 54.4058H31.9763C28.3987 54.4058 25.4989 51.5048 25.4989 47.9283V43.0705C25.4989 39.4928 28.3998 36.5931 31.9763 36.5931H34.4058C36.958 33.6119 40.7261 31.7353 44.9312 31.7353C49.1363 31.7353 52.9044 33.6119 55.4417 36.5747L55.4578 36.5931H57.8873C61.4649 36.5931 64.3647 39.494 64.3647 43.0705ZM42.098 40.6422C41.4419 40.6606 40.9165 41.1974 40.9165 41.8569C40.9165 42.5165 41.4419 43.0533 42.0968 43.0717H42.098C42.7541 43.0533 43.2795 42.5165 43.2795 41.8569C43.2795 41.1974 42.7541 40.6606 42.0991 40.6422H42.0968H42.098ZM40.8833 49.1442C40.9016 49.8003 41.4384 50.3257 42.098 50.3257C42.7575 50.3257 43.2944 49.8003 43.3127 49.1453V49.1431V45.0939C43.2944 44.4378 42.7575 43.9125 42.098 43.9125C41.4384 43.9125 40.9016 44.4378 40.8833 45.0928V45.0951V49.1442ZM37.239 49.2784L39.1283 42.3961C39.2063 42.2401 39.251 42.0554 39.251 41.8615C39.251 41.1859 38.7027 40.6376 38.0271 40.6376C37.449 40.6376 36.9638 41.0391 36.8353 41.5793L36.8341 41.5874L36.0243 44.556L35.2145 41.5874C35.0562 41.0574 34.5721 40.6778 33.9998 40.6778C33.4274 40.6778 32.9445 41.0574 32.7873 41.5793L32.785 41.5885L31.9752 44.5571L31.1654 41.5885C31.0231 41.0609 30.5483 40.6778 29.985 40.6778C29.3106 40.6778 28.7646 41.2238 28.7646 41.8982C28.7646 42.0795 28.8036 42.2504 28.8747 42.4052L28.8713 42.3972L30.7605 49.2796C30.843 49.8841 31.3546 50.344 31.9752 50.344C32.5958 50.344 33.1073 49.8829 33.1888 49.2853L33.1899 49.2784L33.9998 46.4452L34.8096 49.2784C34.8681 49.9024 35.39 50.3876 36.0243 50.3876C36.6586 50.3876 37.1805 49.9036 37.2379 49.2841V49.2796L37.239 49.2784ZM57.8861 38.2127H49.3853C49.3807 38.2127 49.3749 38.2127 49.3692 38.2127C47.3653 38.2127 45.741 39.837 45.741 41.8409V41.8569V41.8558V49.1431V49.1649C45.741 51.0793 44.259 52.6485 42.3802 52.7861L42.3687 52.7873H57.8884H57.909C60.5805 52.7873 62.7473 50.6216 62.7473 47.949C62.7473 47.9421 62.7473 47.9352 62.7473 47.9272V47.9283V43.0694C62.7473 43.0636 62.7473 43.0568 62.7473 43.0487C62.7473 40.3772 60.5817 38.2104 57.909 38.2104C57.9022 38.2104 57.8953 38.2104 57.8873 38.2104H57.8884L57.8861 38.2127Z" fill="#EB0A0C"/>
<path d="M59.102 40.6422C58.4459 40.6606 57.9205 41.1974 57.9205 41.8569C57.9205 42.5165 58.4459 43.0533 59.1008 43.0717H59.1031C59.7593 43.0533 60.2846 42.5165 60.2846 41.8569C60.2846 41.1974 59.7593 40.6606 59.1043 40.6422H59.102ZM57.8873 49.1442V49.1775C57.8873 49.8485 58.431 50.3922 59.102 50.3922C59.773 50.3922 60.3167 49.8485 60.3167 49.1775C60.3167 49.166 60.3167 49.1545 60.3167 49.1419V49.1431V45.0939C60.3167 45.0836 60.3167 45.0721 60.3167 45.0607C60.3167 44.3896 59.773 43.8459 59.102 43.8459C58.431 43.8459 57.8873 44.3896 57.8873 45.0607V45.0962V45.0939V49.1442ZM55.054 40.6422C55.7101 40.6606 56.2355 41.1974 56.2355 41.8569C56.2355 42.5165 55.7101 43.0533 55.0552 43.0717H55.0529H50.6V44.6913H53.4332C54.0893 44.7097 54.6147 45.2465 54.6147 45.9061C54.6147 46.5656 54.0893 47.1024 53.4344 47.1208H53.4321H50.5988V49.1453V49.1786C50.5988 49.8496 50.0551 50.3934 49.3841 50.3934C48.7131 50.3934 48.1694 49.8496 48.1694 49.1786C48.1694 49.1671 48.1694 49.1557 48.1694 49.1431V49.1453V41.8569C48.1694 41.8558 48.1694 41.8535 48.1694 41.8512C48.1694 41.1836 48.7108 40.6422 49.3784 40.6422H49.3841H55.054ZM64.3647 43.0705V47.9283C64.3647 51.506 61.4638 54.4058 57.8873 54.4058H55.4578C52.9056 57.387 49.1375 59.2636 44.9324 59.2636C40.7273 59.2636 36.9592 57.387 34.4219 54.4241L34.4058 54.4058H31.9763C28.3987 54.4058 25.4989 51.5048 25.4989 47.9283V43.0705C25.4989 39.4928 28.3998 36.5931 31.9763 36.5931H34.4058C36.958 33.6119 40.7261 31.7353 44.9312 31.7353C49.1363 31.7353 52.9044 33.6119 55.4417 36.5747L55.4578 36.5931H57.8873C61.4649 36.5931 64.3647 39.494 64.3647 43.0705ZM42.098 40.6422C41.4419 40.6606 40.9165 41.1974 40.9165 41.8569C40.9165 42.5165 41.4419 43.0533 42.0968 43.0717H42.098C42.7541 43.0533 43.2795 42.5165 43.2795 41.8569C43.2795 41.1974 42.7541 40.6606 42.0991 40.6422H42.0968H42.098ZM40.8833 49.1442C40.9016 49.8003 41.4384 50.3257 42.098 50.3257C42.7575 50.3257 43.2944 49.8003 43.3127 49.1453V49.1431V45.0939C43.2944 44.4378 42.7575 43.9125 42.098 43.9125C41.4384 43.9125 40.9016 44.4378 40.8833 45.0928V45.0951V49.1442ZM37.239 49.2784L39.1283 42.3961C39.2063 42.2401 39.251 42.0554 39.251 41.8615C39.251 41.1859 38.7027 40.6376 38.0271 40.6376C37.449 40.6376 36.9638 41.0391 36.8353 41.5793L36.8341 41.5874L36.0243 44.556L35.2145 41.5874C35.0562 41.0574 34.5721 40.6778 33.9998 40.6778C33.4274 40.6778 32.9445 41.0574 32.7873 41.5793L32.785 41.5885L31.9752 44.5571L31.1654 41.5885C31.0231 41.0609 30.5483 40.6778 29.985 40.6778C29.3106 40.6778 28.7646 41.2238 28.7646 41.8982C28.7646 42.0795 28.8036 42.2504 28.8747 42.4052L28.8713 42.3972L30.7605 49.2796C30.843 49.8841 31.3546 50.344 31.9752 50.344C32.5958 50.344 33.1073 49.8829 33.1888 49.2853L33.1899 49.2784L33.9998 46.4452L34.8096 49.2784C34.8681 49.9024 35.39 50.3876 36.0243 50.3876C36.6586 50.3876 37.1805 49.9036 37.2379 49.2841V49.2796L37.239 49.2784ZM57.8861 38.2127H49.3853C49.3807 38.2127 49.3749 38.2127 49.3692 38.2127C47.3653 38.2127 45.741 39.837 45.741 41.8409V41.8569V41.8558V49.1431V49.1649C45.741 51.0793 44.259 52.6485 42.3802 52.7861L42.3687 52.7873H57.8884H57.909C60.5805 52.7873 62.7473 50.6216 62.7473 47.949C62.7473 47.9421 62.7473 47.9352 62.7473 47.9272V47.9283V43.0694C62.7473 43.0636 62.7473 43.0568 62.7473 43.0487C62.7473 40.3772 60.5817 38.2104 57.909 38.2104C57.9022 38.2104 57.8953 38.2104 57.8873 38.2104H57.8884L57.8861 38.2127Z" fill="#EB0A0C"/>
</g>
<defs>
<clipPath id="clip0_178_2263">
<rect width="39" height="39" fill="white" transform="translate(25.5 26)"/>
</clipPath>
</defs>
</svg>
