<svg width="91" height="90" viewBox="0 0 91 90" fill="none" xmlns="http://www.w3.org/2000/svg">
<rect x="0.5" width="90" height="90" rx="15" fill="#F4F4F9"/>
<path fill-rule="evenodd" clip-rule="evenodd" d="M61.3438 41.3438C59.3255 41.3438 57.6875 42.9817 57.6875 45C57.6875 47.0183 59.3255 48.6562 61.3438 48.6562V53.5312C61.3438 54.878 60.253 55.9688 58.9062 55.9688C53.0038 55.9688 37.9962 55.9688 32.0938 55.9688C30.747 55.9688 29.6562 54.878 29.6562 53.5312C29.6562 51.4045 29.6562 48.6562 29.6562 48.6562C31.6745 48.6562 33.3125 47.0183 33.3125 45C33.3125 42.9817 31.6745 41.3438 29.6562 41.3438V36.4688C29.6562 35.122 30.747 34.0312 32.0938 34.0312C37.9962 34.0312 53.0038 34.0312 58.9062 34.0312C60.253 34.0312 61.3438 35.122 61.3438 36.4688C61.3438 38.5955 61.3438 41.3438 61.3438 41.3438Z" fill="#90E0EF"/>
<path fill-rule="evenodd" clip-rule="evenodd" d="M61.3438 42.5625C62.0165 42.5625 62.5625 42.0165 62.5625 41.3438V36.4688C62.5625 34.4493 60.9257 32.8125 58.9062 32.8125H32.0938C30.0743 32.8125 28.4375 34.4493 28.4375 36.4688V41.3438C28.4375 42.0165 28.9835 42.5625 29.6562 42.5625C31.0017 42.5625 32.0938 43.6545 32.0938 45C32.0938 46.3455 31.0017 47.4375 29.6562 47.4375C28.9835 47.4375 28.4375 47.9835 28.4375 48.6562V53.5312C28.4375 55.5507 30.0743 57.1875 32.0938 57.1875H58.9062C60.9257 57.1875 62.5625 55.5507 62.5625 53.5312V48.6562C62.5503 47.9396 62.1091 47.563 61.3438 47.4375C59.9983 47.4375 58.9062 46.3455 58.9062 45C58.9062 43.6545 59.9983 42.5625 61.3438 42.5625ZM52.8125 35.25V37.6875C52.8125 38.3602 52.2665 38.9062 51.5938 38.9062C50.921 38.9062 50.375 38.3602 50.375 37.6875V35.25H32.0938C31.421 35.25 30.875 35.796 30.875 36.4688V40.2786C32.9761 40.8209 34.5312 42.7295 34.5312 45C34.5312 47.2705 32.9761 49.1791 30.875 49.7214V53.5312C30.875 54.204 31.421 54.75 32.0938 54.75H50.375V52.3125C50.375 51.6397 50.921 51.0938 51.5938 51.0938C52.2665 51.0938 52.8125 51.6397 52.8125 52.3125V54.75H58.9062C59.579 54.75 60.125 54.204 60.125 53.5312V49.7214C58.0239 49.1791 56.4688 47.2693 56.4688 45C56.4688 42.7295 58.0239 40.8209 60.125 40.2786V36.4688C60.125 35.796 59.579 35.25 58.9062 35.25H52.8125ZM50.375 42.5625V47.4375C50.375 48.1102 50.921 48.6562 51.5938 48.6562C52.2665 48.6562 52.8125 48.1102 52.8125 47.4375V42.5625C52.8125 41.8898 52.2665 41.3438 51.5938 41.3438C50.921 41.3438 50.375 41.8898 50.375 42.5625Z" fill="#1990A7"/>
</svg>
