<svg width="90" height="91" viewBox="0 0 90 91" fill="none" xmlns="http://www.w3.org/2000/svg">
<rect y="0.5" width="90" height="90" rx="15" fill="#F4F4F9"/>
<path d="M60.8438 43.0625H55.9688V32.0938C55.9685 31.8799 55.9121 31.6699 55.805 31.4848C55.6979 31.2997 55.5441 31.146 55.3588 31.0392C55.1736 30.9324 54.9635 30.8762 54.7497 30.8763C54.5359 30.8763 54.3258 30.9326 54.1406 31.0395L48.6562 34.2266L42.5625 31.0152C42.3854 30.9202 42.1876 30.8705 41.9866 30.8705C41.7857 30.8705 41.5879 30.9202 41.4108 31.0152L35.317 34.3423L29.7656 31.0517C29.5804 30.9448 29.3702 30.8884 29.1562 30.8884C28.9423 30.8884 28.7321 30.9448 28.5469 31.0517C28.3636 31.1575 28.211 31.3093 28.1041 31.492C27.9973 31.6747 27.9398 31.8821 27.9375 32.0938V55.8594C27.9375 56.9907 28.3869 58.0757 29.1869 58.8756C29.9868 59.6756 31.0718 60.125 32.2031 60.125H57.1875C57.2585 60.131 57.3298 60.131 57.4008 60.125C57.5287 60.125 57.6628 60.125 57.7969 60.125C58.9282 60.125 60.0132 59.6756 60.8131 58.8756C61.6131 58.0757 62.0625 56.9907 62.0625 55.8594V44.2813C62.0625 43.958 61.9341 43.648 61.7055 43.4195C61.477 43.1909 61.167 43.0625 60.8438 43.0625ZM32.2031 57.6875C31.7183 57.6875 31.2533 57.4949 30.9104 57.1521C30.5676 56.8092 30.375 56.3442 30.375 55.8594V34.2448L34.6406 36.792C34.8232 36.9037 35.032 36.9653 35.2459 36.9706C35.4599 36.976 35.6714 36.9249 35.8594 36.8225L41.9531 33.477L48.0773 36.6945C48.2575 36.7938 48.4598 36.8458 48.6654 36.8458C48.871 36.8458 49.0733 36.7938 49.2534 36.6945L53.5191 34.257V55.8594C53.5174 56.4922 53.6591 57.1172 53.9334 57.6875H32.2031ZM59.625 55.8594C59.625 56.3442 59.4324 56.8092 59.0896 57.1521C58.7467 57.4949 58.2817 57.6875 57.7969 57.6875C57.312 57.6875 56.847 57.4949 56.5042 57.1521C56.1614 56.8092 55.9688 56.3442 55.9688 55.8594V45.5H59.625V55.8594Z" fill="#0C3BF3"/>
<path d="M48.6562 43.0625H35.25C34.9268 43.0625 34.6168 43.1909 34.3882 43.4195C34.1597 43.648 34.0312 43.958 34.0312 44.2812C34.0312 44.6045 34.1597 44.9145 34.3882 45.143C34.6168 45.3716 34.9268 45.5 35.25 45.5H48.6562C48.9795 45.5 49.2895 45.3716 49.518 45.143C49.7466 44.9145 49.875 44.6045 49.875 44.2812C49.875 43.958 49.7466 43.648 49.518 43.4195C49.2895 43.1909 48.9795 43.0625 48.6562 43.0625Z" fill="#0C3BF3"/>
<path d="M48.6562 50.375H35.25C34.9268 50.375 34.6168 50.5034 34.3882 50.732C34.1597 50.9605 34.0312 51.2705 34.0312 51.5938C34.0312 51.917 34.1597 52.227 34.3882 52.4555C34.6168 52.6841 34.9268 52.8125 35.25 52.8125H48.6562C48.9795 52.8125 49.2895 52.6841 49.518 52.4555C49.7466 52.227 49.875 51.917 49.875 51.5938C49.875 51.2705 49.7466 50.9605 49.518 50.732C49.2895 50.5034 48.9795 50.375 48.6562 50.375Z" fill="#0C3BF3"/>
</svg>
