<svg width="90" height="91" viewBox="0 0 90 91" fill="none" xmlns="http://www.w3.org/2000/svg">
<rect y="0.5" width="90" height="90" rx="15" fill="#F4F4F9"/>
<path d="M40.4446 48.7794C40.7302 48.2601 41.2758 47.9375 41.8684 47.9375H53.0138C54.2325 47.9375 55.305 47.2712 55.8575 46.2637L61.3513 36.2869C61.5298 35.9628 61.5853 35.6042 61.5335 35.2646C61.8219 34.9713 62 34.569 62 34.125C62 33.2275 61.2725 32.5 60.375 32.5H36.0001C35.9465 32.5 35.8935 32.5026 35.8413 32.5077L35.5641 31.9221C35.0266 30.7866 33.8828 30.0625 32.6265 30.0625H30.9951C30.0977 30.0625 29.3701 30.79 29.3701 31.6875C29.3701 32.585 30.0977 33.3125 30.9951 33.3125H31.361C32.13 33.3125 32.8302 33.7554 33.1597 34.4502L37.7554 44.1394C38.2041 45.0853 38.1696 46.1895 37.6627 47.1055L36.2764 49.6112C35.0901 51.7887 36.6501 54.4375 39.1201 54.4375H56.9951C57.8925 54.4375 58.62 53.71 58.62 52.8125C58.62 51.915 57.8925 51.1875 56.9951 51.1875H41.8684C40.6325 51.1875 39.8489 49.8623 40.4446 48.7794Z" fill="#EC01E7"/>
<path d="M39.12 56.0625C37.3325 56.0625 35.8862 57.525 35.8862 59.3125C35.8862 61.1 37.3325 62.5625 39.12 62.5625C40.9075 62.5625 42.37 61.1 42.37 59.3125C42.37 57.525 40.9075 56.0625 39.12 56.0625Z" fill="#EC01E7"/>
<path d="M55.3702 56.0625C53.5827 56.0625 52.1365 57.525 52.1365 59.3125C52.1365 61.1 53.5827 62.5625 55.3702 62.5625C57.1577 62.5625 58.6202 61.1 58.6202 59.3125C58.6202 57.525 57.1577 56.0625 55.3702 56.0625Z" fill="#EC01E7"/>
</svg>
