<svg width="91" height="91" viewBox="0 0 91 91" fill="none" xmlns="http://www.w3.org/2000/svg">
<rect x="0.5" y="0.5" width="90" height="90" rx="15" fill="#F4F4F9"/>
<path d="M35.1406 47.9375C34.6558 47.9375 34.1908 48.1301 33.8479 48.4729C33.5051 48.8158 33.3125 49.2808 33.3125 49.7656C33.3125 50.2505 33.5051 50.7155 33.8479 51.0583C34.1908 51.4011 34.6558 51.5938 35.1406 51.5938H38.7969C39.2817 51.5938 39.7467 51.4011 40.0896 51.0583C40.4324 50.7155 40.625 50.2505 40.625 49.7656C40.625 49.2808 40.4324 48.8158 40.0896 48.4729C39.7467 48.1301 39.2817 47.9375 38.7969 47.9375H35.1406Z" fill="#00C603"/>
<path fill-rule="evenodd" clip-rule="evenodd" d="M26 36.3594C26 34.9048 26.5778 33.5099 27.6063 32.4813C28.6349 31.4528 30.0298 30.875 31.4844 30.875H59.5156C60.9702 30.875 62.3651 31.4528 63.3937 32.4813C64.4222 33.5099 65 34.9048 65 36.3594V54.6406C65 56.0952 64.4222 57.4901 63.3937 58.5187C62.3651 59.5472 60.9702 60.125 59.5156 60.125H31.4844C30.0298 60.125 28.6349 59.5472 27.6063 58.5187C26.5778 57.4901 26 56.0952 26 54.6406V36.3594ZM61.3438 36.3594V38.1875H29.6562V36.3594C29.6562 35.8745 29.8489 35.4095 30.1917 35.0667C30.5345 34.7239 30.9995 34.5312 31.4844 34.5312H59.5156C60.0005 34.5312 60.4655 34.7239 60.8083 35.0667C61.1511 35.4095 61.3438 35.8745 61.3438 36.3594ZM61.3438 43.0625H29.6562V54.6406C29.6562 55.6497 30.4752 56.4688 31.4844 56.4688H59.5156C60.0005 56.4688 60.4655 56.2761 60.8083 55.9333C61.1511 55.5905 61.3438 55.1255 61.3438 54.6406V43.0625Z" fill="#00C603"/>
</svg>
