<svg width="90" height="91" viewBox="0 0 90 91" fill="none" xmlns="http://www.w3.org/2000/svg">
<rect y="0.5" width="90" height="90" rx="15" fill="#F4F4F9"/>
<path d="M43.3125 61.3438C43.3125 62.6844 44.4094 63.7812 45.75 63.7812C47.0906 63.7812 48.1875 62.6844 48.1875 61.3438H43.3125Z" fill="#616466"/>
<path d="M41.4234 55.25H50.0156C50.5031 52.6297 52.1484 50.0703 53.8547 47.3891C55.8656 44.2812 57.9375 41.0516 57.9375 37.9438C57.9375 32.0328 52.4531 27.2188 45.75 27.2188C39.0469 27.2188 33.5625 32.0328 33.5625 37.9438C33.5625 41.0516 35.6344 44.2812 37.5844 47.3891C39.2906 50.0703 40.9359 52.6297 41.4234 55.25Z" fill="#FFCE31"/>
<path d="M42.3377 46.475C42.3986 46.8406 42.5205 47.2063 42.5814 47.5719C42.7642 48.2422 42.8861 48.8516 43.0689 49.5219C43.6173 51.8375 44.1048 53.7875 44.5314 55.3109H44.897C44.5923 53.7875 44.1658 51.7766 43.6173 49.4609C43.4955 48.8516 43.3127 48.1813 43.1908 47.5109C43.1298 47.2063 43.0689 46.8406 42.947 46.5359C43.4345 46.4141 44.5923 46.0484 45.7502 44.7688C46.908 46.0484 48.0658 46.4141 48.5533 46.5359C48.4923 46.9016 48.4314 47.2063 48.3095 47.5109C48.1877 48.1813 48.0048 48.8516 47.883 49.4609C47.3345 51.7766 46.908 53.7875 46.6033 55.3109H46.9689C47.3345 53.7875 47.883 51.8375 48.4314 49.5219C48.5533 48.9125 48.7361 48.2422 48.9189 47.5719C48.9798 47.2063 49.1017 46.8406 49.1627 46.475C49.6502 46.4141 50.0767 46.2922 50.3814 45.9875C50.747 45.6219 50.9298 45.1953 50.808 44.7078C50.747 44.4641 50.6252 44.1594 50.2595 44.0984C50.0767 44.0375 49.9548 44.0375 49.772 44.0984C49.5892 44.1594 49.4673 44.2813 49.4064 44.3422C49.1017 44.7078 48.9798 45.0734 48.858 45.4391L48.6752 45.9875C48.6752 45.9875 48.1877 46.0484 47.0298 45.2563C46.4205 44.8297 46.2377 44.525 46.0548 44.3422C46.2377 44.0984 46.4205 43.9156 46.6033 43.6109C46.6642 43.4281 46.7252 43.3063 46.7861 43.0625C46.7861 42.8797 46.7861 42.6359 46.6642 42.4531C46.5423 42.2703 46.4205 42.0875 46.1158 41.9656C45.9939 41.9047 45.872 41.9047 45.7502 41.9047C45.6283 41.9047 45.5064 41.9047 45.3845 41.9656C45.1408 42.0875 44.958 42.2703 44.8361 42.4531C44.7142 42.6359 44.7142 42.8797 44.7142 43.0625C44.7142 43.2453 44.7752 43.4281 44.897 43.6109C45.0189 43.9156 45.2017 44.1594 45.4455 44.3422C45.2627 44.525 45.0798 44.8297 44.4705 45.2563C43.3736 45.9875 42.8252 45.9875 42.8252 45.9875L42.6423 45.4391C42.5205 45.0734 42.3986 44.7078 42.0939 44.3422C42.033 44.2813 41.9111 44.1594 41.7283 44.0984C41.5455 44.0375 41.3627 44.0375 41.2408 44.0984C40.8752 44.2203 40.7533 44.525 40.6923 44.7078C40.6314 45.1953 40.8142 45.6219 41.1189 45.9875C41.4845 46.2922 41.9111 46.4141 42.3377 46.475ZM49.4064 45.5609C49.5283 45.2563 49.6502 44.8906 49.8939 44.7078C49.9548 44.6469 50.0158 44.6469 50.0158 44.6469H50.1377C50.1986 44.6469 50.2595 44.7078 50.3205 44.8906C50.3814 45.1344 50.2595 45.5 50.0158 45.6828C49.833 45.8047 49.5892 45.9266 49.3455 45.9875C49.3455 45.8047 49.3455 45.6828 49.4064 45.5609ZM45.3845 42.6359C45.5064 42.5141 45.6283 42.3922 45.7502 42.3922C45.872 42.3922 45.9939 42.4531 46.1158 42.6359C46.2377 42.8188 46.1767 43.0625 46.0548 43.3063C45.9939 43.4891 45.872 43.6719 45.7502 43.7938C45.6283 43.6109 45.5064 43.4891 45.4455 43.3063C45.3236 43.1234 45.2627 42.8797 45.3845 42.6359ZM41.2408 44.7688C41.2408 44.6469 41.3017 44.5859 41.4236 44.525H41.5455C41.5455 44.525 41.6064 44.5859 41.6673 44.5859C41.8502 44.7688 42.033 45.1344 42.1548 45.4391C42.2158 45.5609 42.2158 45.6828 42.2767 45.8047C42.033 45.7438 41.7892 45.6828 41.6064 45.5C41.3627 45.3781 41.2408 45.0734 41.2408 44.7688Z" fill="#C79127"/>
<path d="M41.4233 56.4688H50.1374V57.5656H41.4233V56.4688Z" fill="#94989B"/>
<path d="M42.0327 58.6625H49.528V59.7594H42.0327V58.6625Z" fill="#94989B"/>
<path d="M42.0327 57.5656H49.528V58.6625H42.0327V57.5656Z" fill="#616466"/>
<path d="M50.1374 56.4688L42.0327 58.6625V59.8203L50.1374 57.5656V56.4688Z" fill="#94989B"/>
<path d="M42.6421 60.9172H48.9187V62.0141H42.6421V60.9172Z" fill="#94989B"/>
<path d="M42.6421 59.8203H48.9187V60.9172H42.6421V59.8203Z" fill="#616466"/>
<path d="M49.528 58.6625L42.6421 60.9172V62.075L49.528 59.8203V58.6625Z" fill="#94989B"/>
</svg>
