<svg width="40" height="39" viewBox="0 0 40 39" fill="none" xmlns="http://www.w3.org/2000/svg">
<g clip-path="url(#clip0_178_2257)">
<path d="M20.25 39C9.525 39 0.75 30.225 0.75 19.5H4C4 28.4375 11.3125 35.75 20.25 35.75C29.1875 35.75 36.5 28.4375 36.5 19.5C36.5 10.5625 29.1875 3.25 20.25 3.25C14.4 3.25 9.0375 6.3375 6.1125 11.375H13.75V14.625H0.75V1.625H4V8.775C7.575 3.4125 13.75 0 20.25 0C30.975 0 39.75 8.775 39.75 19.5C39.75 30.225 30.975 39 20.25 39ZM25.6125 28.925L18.625 21.775V9.75H21.875V20.475L27.8875 26.65L25.6125 28.925Z" fill="black"/>
</g>
<defs>
<clipPath id="clip0_178_2257">
<rect width="39" height="39" fill="white" transform="translate(0.75)"/>
</clipPath>
</defs>
</svg>
