<svg width="37" height="37" viewBox="0 0 37 37" fill="none" xmlns="http://www.w3.org/2000/svg">
<path d="M14.0501 32.25V21.15C14.0501 20.3099 14.0501 19.8899 14.2135 19.569C14.3574 19.2868 14.5868 19.0573 14.8691 18.9135C15.1899 18.75 15.61 18.75 16.4501 18.75H20.6501C21.4901 18.75 21.9102 18.75 22.231 18.9135C22.5133 19.0573 22.7428 19.2868 22.8866 19.569C23.0501 19.8899 23.0501 20.3099 23.0501 21.15V32.25" fill="#979797"/>
<path d="M6.55005 12.75L15.6701 5.91C16.7028 5.13542 17.2192 4.74813 17.7864 4.59884C18.287 4.46706 18.8131 4.46706 19.3138 4.59884C19.8809 4.74813 20.3973 5.13542 21.4301 5.91L30.5501 12.75V27.45C30.5501 29.1302 30.5501 29.9702 30.2231 30.612C29.9355 31.1765 29.4765 31.6354 28.912 31.923C28.2703 32.25 27.4302 32.25 25.7501 32.25H11.3501C9.6699 32.25 8.82982 32.25 8.18808 31.923C7.6236 31.6354 7.16466 31.1765 6.87704 30.612C6.55006 29.9702 6.55005 29.1302 6.55005 27.45V12.75Z" fill="#979797"/>
<path d="M14.0501 32.25V21.15C14.0501 20.3099 14.0501 19.8899 14.2135 19.569C14.3574 19.2868 14.5868 19.0573 14.8691 18.9135C15.1899 18.75 15.61 18.75 16.4501 18.75H20.6501C21.4901 18.75 21.9102 18.75 22.231 18.9135C22.5133 19.0573 22.7428 19.2868 22.8866 19.569C23.0501 19.8899 23.0501 20.3099 23.0501 21.15V32.25M3.55005 15L17.1101 4.83C17.6264 4.44271 17.8846 4.24906 18.1682 4.17442C18.4185 4.10853 18.6816 4.10853 18.9319 4.17442C19.2155 4.24906 19.4737 4.44271 19.9901 4.83L33.5501 15M6.55005 12.75V27.45C6.55005 29.1302 6.55006 29.9702 6.87704 30.612C7.16466 31.1765 7.6236 31.6354 8.18808 31.923C8.82982 32.25 9.6699 32.25 11.3501 32.25H25.7501C27.4302 32.25 28.2703 32.25 28.912 31.923C29.4765 31.6354 29.9355 31.1765 30.2231 30.612C30.5501 29.9702 30.5501 29.1302 30.5501 27.45V12.75L21.4301 5.91C20.3973 5.13542 19.8809 4.74813 19.3138 4.59884C18.8131 4.46706 18.287 4.46706 17.7864 4.59884C17.2192 4.74813 16.7028 5.13542 15.6701 5.91L6.55005 12.75Z" stroke="#979797" stroke-width="3" stroke-linecap="round" stroke-linejoin="round"/>
<rect x="1.30005" y="1.5" width="34.5" height="34.5" stroke="black" stroke-width="1.5"/>
</svg>
