<svg width="37" height="37" viewBox="0 0 37 37" fill="none" xmlns="http://www.w3.org/2000/svg">
<path d="M13.5501 31.75V20.65C13.5501 19.8099 13.5501 19.3899 13.7135 19.069C13.8574 18.7868 14.0868 18.5573 14.3691 18.4135C14.6899 18.25 15.11 18.25 15.9501 18.25H20.1501C20.9901 18.25 21.4102 18.25 21.731 18.4135C22.0133 18.5573 22.2428 18.7868 22.3866 19.069C22.5501 19.3899 22.5501 19.8099 22.5501 20.65V31.75" fill="#FEFEFE"/>
<path d="M6.05005 12.25L15.1701 5.41C16.2028 4.63542 16.7192 4.24813 17.2864 4.09884C17.787 3.96706 18.3131 3.96706 18.8138 4.09884C19.3809 4.24813 19.8973 4.63542 20.9301 5.41L30.0501 12.25V26.95C30.0501 28.6302 30.0501 29.4702 29.7231 30.112C29.4355 30.6765 28.9765 31.1354 28.412 31.423C27.7703 31.75 26.9302 31.75 25.2501 31.75H10.8501C9.1699 31.75 8.32982 31.75 7.68808 31.423C7.1236 31.1354 6.66466 30.6765 6.37704 30.112C6.05006 29.4702 6.05005 28.6302 6.05005 26.95V12.25Z" fill="#FEFEFE"/>
<path d="M13.5501 31.75V20.65C13.5501 19.8099 13.5501 19.3899 13.7135 19.069C13.8574 18.7868 14.0868 18.5573 14.3691 18.4135C14.6899 18.25 15.11 18.25 15.9501 18.25H20.1501C20.9901 18.25 21.4102 18.25 21.731 18.4135C22.0133 18.5573 22.2428 18.7868 22.3866 19.069C22.5501 19.3899 22.5501 19.8099 22.5501 20.65V31.75M3.05005 14.5L16.6101 4.33C17.1264 3.94271 17.3846 3.74906 17.6682 3.67442C17.9185 3.60853 18.1816 3.60853 18.4319 3.67442C18.7155 3.74906 18.9737 3.94271 19.4901 4.33L33.0501 14.5M6.05005 12.25V26.95C6.05005 28.6302 6.05006 29.4702 6.37704 30.112C6.66466 30.6765 7.1236 31.1354 7.68808 31.423C8.32982 31.75 9.1699 31.75 10.8501 31.75H25.2501C26.9302 31.75 27.7703 31.75 28.412 31.423C28.9765 31.1354 29.4355 30.6765 29.7231 30.112C30.0501 29.4702 30.0501 28.6302 30.0501 26.95V12.25L20.9301 5.41C19.8973 4.63542 19.3809 4.24813 18.8138 4.09884C18.3131 3.96706 17.787 3.96706 17.2864 4.09884C16.7192 4.24813 16.2028 4.63542 15.1701 5.41L6.05005 12.25Z" stroke="#FEFEFE" stroke-width="3" stroke-linecap="round" stroke-linejoin="round"/>
</svg>
