<svg width="37" height="37" viewBox="0 0 37 37" fill="none" xmlns="http://www.w3.org/2000/svg">
<path d="M14.0498 32.25V21.15C14.0498 20.3099 14.0498 19.8899 14.2133 19.569C14.3571 19.2868 14.5866 19.0573 14.8688 18.9135C15.1897 18.75 15.6097 18.75 16.4498 18.75H20.6498C21.4899 18.75 21.9099 18.75 22.2308 18.9135C22.513 19.0573 22.7425 19.2868 22.8863 19.569C23.0498 19.8899 23.0498 20.3099 23.0498 21.15V32.25" fill="#979797"/>
<path d="M6.54981 12.75L15.6698 5.91C16.7026 5.13542 17.219 4.74813 17.7861 4.59884C18.2867 4.46706 18.8129 4.46706 19.3135 4.59884C19.8806 4.74813 20.397 5.13542 21.4298 5.91L30.5498 12.75V27.45C30.5498 29.1302 30.5498 29.9702 30.2228 30.612C29.9352 31.1765 29.4763 31.6354 28.9118 31.923C28.27 32.25 27.43 32.25 25.7498 32.25H11.3498C9.66965 32.25 8.82957 32.25 8.18784 31.923C7.62335 31.6354 7.16441 31.1765 6.87679 30.612C6.54981 29.9702 6.54981 29.1302 6.54981 27.45V12.75Z" fill="#979797"/>
<path d="M14.0498 32.25V21.15C14.0498 20.3099 14.0498 19.8899 14.2133 19.569C14.3571 19.2868 14.5866 19.0573 14.8688 18.9135C15.1897 18.75 15.6097 18.75 16.4498 18.75H20.6498C21.4899 18.75 21.9099 18.75 22.2308 18.9135C22.513 19.0573 22.7425 19.2868 22.8863 19.569C23.0498 19.8899 23.0498 20.3099 23.0498 21.15V32.25M3.5498 15L17.1098 4.83C17.6262 4.44271 17.8844 4.24906 18.168 4.17442C18.4183 4.10853 18.6814 4.10853 18.9317 4.17442C19.2152 4.24906 19.4734 4.44271 19.9898 4.83L33.5498 15M6.54981 12.75V27.45C6.54981 29.1302 6.54981 29.9702 6.87679 30.612C7.16441 31.1765 7.62335 31.6354 8.18784 31.923C8.82957 32.25 9.66965 32.25 11.3498 32.25H25.7498C27.43 32.25 28.27 32.25 28.9118 31.923C29.4763 31.6354 29.9352 31.1765 30.2228 30.612C30.5498 29.9702 30.5498 29.1302 30.5498 27.45V12.75L21.4298 5.91C20.397 5.13542 19.8806 4.74813 19.3135 4.59884C18.8129 4.46706 18.2867 4.46706 17.7861 4.59884C17.219 4.74813 16.7026 5.13542 15.6698 5.91L6.54981 12.75Z" stroke="#979797" stroke-width="3" stroke-linecap="round" stroke-linejoin="round"/>
<rect x="1.2998" y="1.5" width="34.5" height="34.5" stroke="black" stroke-width="1.5"/>
</svg>
