<svg width="25" height="25" viewBox="0 0 25 25" fill="none" xmlns="http://www.w3.org/2000/svg">
<path fill-rule="evenodd" clip-rule="evenodd" d="M9.42519 16.89H14.8113C15.2173 16.89 15.5539 16.55 15.5539 16.14C15.5539 15.73 15.2173 15.4 14.8113 15.4H9.42519C9.01925 15.4 8.68262 15.73 8.68262 16.14C8.68262 16.55 9.01925 16.89 9.42519 16.89ZM12.7717 10.4H9.42519C9.01925 10.4 8.68262 10.74 8.68262 11.15C8.68262 11.56 9.01925 11.89 9.42519 11.89H12.7717C13.1777 11.89 13.5143 11.56 13.5143 11.15C13.5143 10.74 13.1777 10.4 12.7717 10.4ZM19.8376 9.52561C20.0703 9.52292 20.3237 9.52 20.554 9.52C20.8015 9.52 20.9995 9.72 20.9995 9.97V18.01C20.9995 20.49 19.0094 22.5 16.554 22.5H8.67278C6.09852 22.5 3.99951 20.39 3.99951 17.79V7.01C3.99951 4.53 5.99951 2.5 8.46486 2.5H13.752C14.0094 2.5 14.2074 2.71 14.2074 2.96V6.18C14.2074 8.01 15.7025 9.51 17.5144 9.52C17.9376 9.52 18.3107 9.52316 18.6372 9.52593C18.8912 9.52809 19.1171 9.53 19.3163 9.53C19.4573 9.53 19.64 9.52789 19.8376 9.52561ZM20.1105 8.066C19.2967 8.069 18.3373 8.066 17.6472 8.059C16.5521 8.059 15.6501 7.148 15.6501 6.042V3.406C15.6501 2.975 16.168 2.761 16.464 3.072C17.0001 3.63495 17.7368 4.40886 18.4701 5.17915C19.2009 5.94684 19.9283 6.71093 20.4501 7.259C20.7393 7.562 20.5274 8.065 20.1105 8.066Z" fill="white"/>
</svg>
