<svg width="25" height="25" viewBox="0 0 25 25" fill="none" xmlns="http://www.w3.org/2000/svg">
<path fill-rule="evenodd" clip-rule="evenodd" d="M9.42556 16.89H14.8117C15.2176 16.89 15.5543 16.55 15.5543 16.14C15.5543 15.73 15.2176 15.4 14.8117 15.4H9.42556C9.01962 15.4 8.68298 15.73 8.68298 16.14C8.68298 16.55 9.01962 16.89 9.42556 16.89ZM12.7721 10.4H9.42556C9.01962 10.4 8.68298 10.74 8.68298 11.15C8.68298 11.56 9.01962 11.89 9.42556 11.89H12.7721C13.178 11.89 13.5147 11.56 13.5147 11.15C13.5147 10.74 13.178 10.4 12.7721 10.4ZM19.8381 9.52561C20.0708 9.52292 20.3242 9.52 20.5545 9.52C20.802 9.52 21 9.72 21 9.97V18.01C21 20.49 19.0099 22.5 16.5545 22.5H8.67327C6.09901 22.5 4 20.39 4 17.79V7.01C4 4.53 6 2.5 8.46535 2.5H13.7525C14.0099 2.5 14.2079 2.71 14.2079 2.96V6.18C14.2079 8.01 15.703 9.51 17.5149 9.52C17.9381 9.52 18.3112 9.52316 18.6377 9.52593C18.8917 9.52809 19.1175 9.53 19.3168 9.53C19.4578 9.53 19.6405 9.52789 19.8381 9.52561ZM20.1113 8.066C19.2974 8.069 18.338 8.066 17.6479 8.059C16.5529 8.059 15.6509 7.148 15.6509 6.042V3.406C15.6509 2.975 16.1687 2.761 16.4647 3.072C17.0008 3.63495 17.7375 4.40886 18.4708 5.17915C19.2016 5.94684 19.929 6.71093 20.4509 7.259C20.74 7.562 20.5281 8.065 20.1113 8.066Z" fill="white"/>
</svg>
