<svg width="24" height="25" viewBox="0 0 24 25" fill="none" xmlns="http://www.w3.org/2000/svg">
<path fill-rule="evenodd" clip-rule="evenodd" d="M8.92556 16.89H14.3117C14.7176 16.89 15.0543 16.55 15.0543 16.14C15.0543 15.73 14.7176 15.4 14.3117 15.4H8.92556C8.51962 15.4 8.18298 15.73 8.18298 16.14C8.18298 16.55 8.51962 16.89 8.92556 16.89ZM12.2721 10.4H8.92556C8.51962 10.4 8.18298 10.74 8.18298 11.15C8.18298 11.56 8.51962 11.89 8.92556 11.89H12.2721C12.678 11.89 13.0147 11.56 13.0147 11.15C13.0147 10.74 12.678 10.4 12.2721 10.4ZM19.3381 9.52561C19.5708 9.52292 19.8242 9.52 20.0545 9.52C20.302 9.52 20.5 9.72 20.5 9.97V18.01C20.5 20.49 18.5099 22.5 16.0545 22.5H8.17327C5.59901 22.5 3.5 20.39 3.5 17.79V7.01C3.5 4.53 5.5 2.5 7.96535 2.5H13.2525C13.5099 2.5 13.7079 2.71 13.7079 2.96V6.18C13.7079 8.01 15.203 9.51 17.0149 9.52C17.4381 9.52 17.8112 9.52316 18.1377 9.52593C18.3917 9.52809 18.6175 9.53 18.8168 9.53C18.9578 9.53 19.1405 9.52789 19.3381 9.52561ZM19.6113 8.066C18.7974 8.069 17.838 8.066 17.1479 8.059C16.0529 8.059 15.1509 7.148 15.1509 6.042V3.406C15.1509 2.975 15.6687 2.761 15.9647 3.072C16.5008 3.63495 17.2375 4.40886 17.9708 5.17915C18.7016 5.94684 19.429 6.71093 19.9509 7.259C20.24 7.562 20.0281 8.065 19.6113 8.066Z" fill="white"/>
</svg>
