<svg width="40" height="39" viewBox="0 0 40 39" fill="none" xmlns="http://www.w3.org/2000/svg">
<path d="M32.0943 14.4218V24.9764C32.0938 25.2348 31.9909 25.4825 31.8082 25.6652C31.6254 25.848 31.3777 25.9509 31.1193 25.9514H8.38027C8.12185 25.9509 7.87417 25.848 7.69144 25.6652C7.50871 25.4825 7.40582 25.2348 7.40527 24.9764V14.4218C7.40582 14.1633 7.50871 13.9157 7.69144 13.7329C7.87417 13.5502 8.12185 13.4473 8.38027 13.4468H31.1193C31.3777 13.4473 31.6254 13.5502 31.8082 13.7329C31.9909 13.9157 32.0938 14.1633 32.0943 14.4218ZM24.7418 19.697C24.7398 18.4637 24.2799 17.275 23.4511 16.3616C22.6224 15.4482 21.4839 14.8752 20.2566 14.7536C19.0292 14.6321 17.8005 14.9707 16.8087 15.7038C15.8169 16.4369 15.1327 17.5123 14.8889 18.7213C14.645 19.9303 14.8589 21.1867 15.489 22.247C16.1191 23.3072 17.1205 24.0956 18.299 24.4593C19.4775 24.823 20.7491 24.736 21.8671 24.2152C22.9851 23.6945 23.8699 22.777 24.3497 21.6409C24.6089 21.0264 24.7416 20.366 24.7397 19.6991L24.7418 19.697ZM24.2594 10.2939C24.0462 10.5069 23.7572 10.6265 23.4558 10.6265C23.1545 10.6265 22.8654 10.5069 22.6522 10.2939L20.887 8.52866V10.5813C20.887 10.8829 20.7671 11.1721 20.5539 11.3854C20.3406 11.5986 20.0514 11.7185 19.7498 11.7185C19.4482 11.7185 19.159 11.5986 18.9457 11.3854C18.7324 11.1721 18.6126 10.8829 18.6126 10.5813V8.52866L16.8474 10.2939C16.634 10.5071 16.3447 10.6267 16.043 10.6265C15.7414 10.6263 15.4523 10.5063 15.2391 10.2929C15.026 10.0795 14.9064 9.79017 14.9066 9.48857C14.9068 9.18697 15.0268 8.89779 15.2402 8.68466L18.9452 4.97966C19.0508 4.87391 19.1762 4.79001 19.3143 4.73276C19.4523 4.67552 19.6003 4.64606 19.7498 4.64606C19.8993 4.64606 20.0473 4.67552 20.1853 4.73276C20.3234 4.79001 20.4488 4.87391 20.5544 4.97966L24.2594 8.68261C24.3652 8.78822 24.4491 8.91365 24.5063 9.05172C24.5636 9.18978 24.593 9.33778 24.593 9.48724C24.593 9.6367 24.5636 9.7847 24.5063 9.92277C24.4491 10.0608 24.3652 10.1863 24.2594 10.2919V10.2939ZM24.2594 30.7115L20.5544 34.4185C20.4488 34.5243 20.3234 34.6082 20.1853 34.6654C20.0473 34.7226 19.8993 34.7521 19.7498 34.7521C19.6003 34.7521 19.4523 34.7226 19.3143 34.6654C19.1762 34.6082 19.0508 34.5243 18.9452 34.4185L15.2402 30.7115C15.0391 30.4959 14.9296 30.2107 14.9348 29.916C14.9399 29.6213 15.0592 29.3401 15.2677 29.1317C15.4761 28.9233 15.7573 28.804 16.052 28.7988C16.3467 28.7937 16.6318 28.9032 16.8474 29.1042L18.6126 30.8695V28.8169C18.6126 28.5153 18.7324 28.226 18.9457 28.0128C19.159 27.7995 19.4482 27.6797 19.7498 27.6797C20.0514 27.6797 20.3406 27.7995 20.5539 28.0128C20.7671 28.226 20.887 28.5153 20.887 28.8169V30.8695L22.6522 29.1042C22.7563 28.9926 22.8819 28.9031 23.0214 28.841C23.1608 28.7789 23.3114 28.7455 23.464 28.7429C23.6167 28.7402 23.7683 28.7683 23.9098 28.8255C24.0514 28.8827 24.1799 28.9678 24.2879 29.0758C24.3958 29.1837 24.481 29.3123 24.5381 29.4539C24.5953 29.5954 24.6234 29.747 24.6208 29.8997C24.6181 30.0523 24.5848 30.2028 24.5227 30.3423C24.4606 30.4818 24.3711 30.6073 24.2594 30.7115ZM22.1042 21.0046C22.103 21.3028 22.0234 21.5956 21.8736 21.8535C21.7237 22.1114 21.5088 22.3255 21.2503 22.4742C20.9899 22.6398 20.7032 22.7599 20.4025 22.8293V23.3753C20.3932 23.5413 20.3207 23.6975 20.1999 23.8117C20.0791 23.9259 19.9191 23.9895 19.7529 23.9895C19.5866 23.9895 19.4267 23.9259 19.3059 23.8117C19.1851 23.6975 19.1126 23.5413 19.1032 23.3753V22.8376C18.9147 22.798 18.7305 22.7403 18.5531 22.6651C18.2653 22.5462 18.0104 22.3596 17.8101 22.1212C17.7025 21.9901 17.6504 21.8222 17.6648 21.6533C17.6791 21.4844 17.7589 21.3277 17.887 21.2167C18.0152 21.1057 18.1816 21.0491 18.3509 21.0589C18.5201 21.0687 18.6789 21.1442 18.7933 21.2693C18.858 21.3506 18.941 21.4153 19.0355 21.4582C19.1424 21.5049 19.2538 21.5407 19.368 21.5649C19.4872 21.5885 19.6079 21.6036 19.7293 21.6101C20.0164 21.6108 20.2983 21.5327 20.5442 21.3843C20.8049 21.216 20.8049 21.0723 20.8049 21.0046C20.8036 20.8989 20.7651 20.7971 20.6961 20.7172C20.6187 20.6299 20.5271 20.5563 20.4251 20.4996C20.3192 20.4456 20.2068 20.4056 20.0905 20.3806C19.9826 20.3574 19.8725 20.3457 19.7621 20.3457C19.5745 20.3469 19.387 20.3325 19.2017 20.3026C18.9506 20.2609 18.7071 20.182 18.4792 20.0686C18.2133 19.9355 17.9789 19.7473 17.7916 19.5164C17.5326 19.2031 17.3891 18.8103 17.3852 18.4039C17.3912 18.0953 17.4764 17.7936 17.6328 17.5275C17.7892 17.2615 18.0114 17.0402 18.2781 16.8849C18.5324 16.727 18.8113 16.6126 19.1032 16.5462V16.0228C19.1126 15.8568 19.1851 15.7007 19.3059 15.5865C19.4267 15.4723 19.5866 15.4087 19.7529 15.4087C19.9191 15.4087 20.0791 15.4723 20.1999 15.5865C20.3207 15.7007 20.3932 15.8568 20.4025 16.0228V16.5647C20.5951 16.6117 20.7828 16.677 20.9629 16.7597C21.2055 16.8687 21.4265 17.0203 21.6156 17.2072C21.7379 17.3291 21.8066 17.4946 21.8068 17.6673C21.807 17.8399 21.7386 18.0056 21.6167 18.1278C21.4947 18.25 21.3292 18.3188 21.1566 18.319C20.9839 18.3192 20.8183 18.2508 20.6961 18.1288C20.6186 18.0521 20.5283 17.9896 20.4292 17.9441C20.3192 17.8931 20.2044 17.8532 20.0864 17.825L20.0515 17.8168C19.9593 17.7934 19.8652 17.7776 19.7703 17.7696C19.4899 17.7685 19.2143 17.8422 18.9719 17.9831C18.8913 18.022 18.8224 18.0813 18.772 18.1551C18.7216 18.229 18.6914 18.3147 18.6845 18.4039C18.6905 18.5118 18.7316 18.6149 18.8015 18.6974C18.8725 18.7836 18.9605 18.8542 19.0601 18.9047C19.1723 18.9601 19.2919 18.9988 19.4152 19.0197C19.5299 19.0383 19.6459 19.0472 19.7621 19.0463C19.9656 19.0454 20.1685 19.066 20.3676 19.1079C20.5983 19.1584 20.8212 19.2392 21.0306 19.3481C21.2744 19.4793 21.4927 19.6531 21.6752 19.8612C21.9523 20.1777 22.1054 20.5839 22.1062 21.0046H22.1042Z" fill="black"/>
</svg>
