<svg width="37" height="37" viewBox="0 0 37 37" fill="none" xmlns="http://www.w3.org/2000/svg">
<circle cx="18.9497" cy="18.75" r="16.5" stroke="#8E9399" stroke-width="3"/>
<path fill-rule="evenodd" clip-rule="evenodd" d="M18.9492 19.9999C19.6396 19.9999 20.1992 19.4403 20.1992 18.7499C20.1992 18.0596 19.6396 17.4999 18.9492 17.4999C18.2589 17.4999 17.6992 18.0596 17.6992 18.7499C17.6992 19.4403 18.2589 19.9999 18.9492 19.9999Z" stroke="#8E9399" stroke-width="3" stroke-linecap="round" stroke-linejoin="round"/>
<path fill-rule="evenodd" clip-rule="evenodd" d="M27.6992 19.9999C28.3896 19.9999 28.9492 19.4403 28.9492 18.7499C28.9492 18.0596 28.3896 17.4999 27.6992 17.4999C27.0089 17.4999 26.4492 18.0596 26.4492 18.7499C26.4492 19.4403 27.0089 19.9999 27.6992 19.9999Z" stroke="#8E9399" stroke-width="3" stroke-linecap="round" stroke-linejoin="round"/>
<path fill-rule="evenodd" clip-rule="evenodd" d="M10.1992 19.9999C10.8896 19.9999 11.4492 19.4403 11.4492 18.7499C11.4492 18.0596 10.8896 17.4999 10.1992 17.4999C9.50886 17.4999 8.94922 18.0596 8.94922 18.7499C8.94922 19.4403 9.50886 19.9999 10.1992 19.9999Z" stroke="#8E9399" stroke-width="3" stroke-linecap="round" stroke-linejoin="round"/>
</svg>
