<svg width="37" height="37" viewBox="0 0 37 37" fill="none" xmlns="http://www.w3.org/2000/svg">
<circle cx="18.95" cy="18.75" r="16.5" stroke="#8E9399" stroke-width="3"/>
<path fill-rule="evenodd" clip-rule="evenodd" d="M18.9497 20C19.6401 20 20.1997 19.4404 20.1997 18.75C20.1997 18.0596 19.6401 17.5 18.9497 17.5C18.2594 17.5 17.6997 18.0596 17.6997 18.75C17.6997 19.4404 18.2594 20 18.9497 20Z" stroke="#8E9399" stroke-width="3" stroke-linecap="round" stroke-linejoin="round"/>
<path fill-rule="evenodd" clip-rule="evenodd" d="M27.7 20C28.3903 20 28.95 19.4404 28.95 18.75C28.95 18.0596 28.3903 17.5 27.7 17.5C27.0096 17.5 26.45 18.0596 26.45 18.75C26.45 19.4404 27.0096 20 27.7 20Z" stroke="#8E9399" stroke-width="3" stroke-linecap="round" stroke-linejoin="round"/>
<path fill-rule="evenodd" clip-rule="evenodd" d="M10.1997 20C10.8901 20 11.4497 19.4404 11.4497 18.75C11.4497 18.0596 10.8901 17.5 10.1997 17.5C9.50935 17.5 8.94971 18.0596 8.94971 18.75C8.94971 19.4404 9.50935 20 10.1997 20Z" stroke="#8E9399" stroke-width="3" stroke-linecap="round" stroke-linejoin="round"/>
</svg>
