<svg width="37" height="37" viewBox="0 0 37 37" fill="none" xmlns="http://www.w3.org/2000/svg">
<circle cx="18.45" cy="18.75" r="16.5" stroke="#8E9399" stroke-width="3"/>
<path fill-rule="evenodd" clip-rule="evenodd" d="M18.4497 20C19.1401 20 19.6997 19.4404 19.6997 18.75C19.6997 18.0596 19.1401 17.5 18.4497 17.5C17.7594 17.5 17.1997 18.0596 17.1997 18.75C17.1997 19.4404 17.7594 20 18.4497 20Z" stroke="#8E9399" stroke-width="3" stroke-linecap="round" stroke-linejoin="round"/>
<path fill-rule="evenodd" clip-rule="evenodd" d="M27.2 20C27.8903 20 28.45 19.4404 28.45 18.75C28.45 18.0596 27.8903 17.5 27.2 17.5C26.5096 17.5 25.95 18.0596 25.95 18.75C25.95 19.4404 26.5096 20 27.2 20Z" stroke="#8E9399" stroke-width="3" stroke-linecap="round" stroke-linejoin="round"/>
<path fill-rule="evenodd" clip-rule="evenodd" d="M9.69971 20C10.3901 20 10.9497 19.4404 10.9497 18.75C10.9497 18.0596 10.3901 17.5 9.69971 17.5C9.00935 17.5 8.44971 18.0596 8.44971 18.75C8.44971 19.4404 9.00935 20 9.69971 20Z" stroke="#8E9399" stroke-width="3" stroke-linecap="round" stroke-linejoin="round"/>
</svg>
