<svg width="53" height="53" viewBox="0 0 53 53" fill="none" xmlns="http://www.w3.org/2000/svg">
<g clip-path="url(#clip0_178_2237)">
<path d="M40.33 29.93L38.09 27.69C37.5755 27.1361 37.2773 26.4155 37.25 25.66V21.25C37.25 15.58 33.47 10.75 26.75 10.75C20.03 10.75 16.25 15.44 16.25 21.25V26.15C16.237 26.5931 16.0628 27.0162 15.76 27.34L13.17 29.93C12.9062 30.1885 12.7553 30.5407 12.75 30.91V35.95C12.75 36.3213 12.8975 36.6774 13.1601 36.94C13.4226 37.2025 13.7787 37.35 14.15 37.35H21.92C22.1148 38.4899 22.7065 39.5243 23.5904 40.27C24.4743 41.0157 25.5935 41.4247 26.75 41.4247C27.9065 41.4247 29.0257 41.0157 29.9096 40.27C30.7935 39.5243 31.3852 38.4899 31.58 37.35H39.35C39.7213 37.35 40.0774 37.2025 40.34 36.94C40.6025 36.6774 40.75 36.3213 40.75 35.95V30.91C40.7447 30.5407 40.5938 30.1885 40.33 29.93Z" fill="white"/>
</g>
<rect x="1.25" y="1" width="51" height="51" rx="14.25" stroke="white" stroke-width="1.5"/>
<defs>
<clipPath id="clip0_178_2237">
<rect x="0.5" y="0.25" width="52.5" height="52.5" rx="15" fill="white"/>
</clipPath>
</defs>
</svg>
