<svg width="37" height="37" viewBox="0 0 37 37" fill="none" xmlns="http://www.w3.org/2000/svg">
<path d="M7.84975 20.25C7.84975 15.2794 11.8792 11.25 16.8497 11.25M7.84975 20.25C7.84975 22.7226 8.84684 24.9623 10.4609 26.5889C10.6165 26.7458 10.6944 26.8243 10.7403 26.8997C10.7841 26.9717 10.8097 27.0336 10.8292 27.1156C10.8497 27.2015 10.8497 27.2992 10.8497 27.4947V31.05C10.8497 31.47 10.8497 31.6801 10.9315 31.8405C11.0034 31.9816 11.1181 32.0964 11.2593 32.1683C11.4197 32.25 11.6297 32.25 12.0497 32.25H14.8997C15.3198 32.25 15.5298 32.25 15.6902 32.1683C15.8314 32.0964 15.9461 31.9816 16.018 31.8405C16.0997 31.6801 16.0997 31.47 16.0997 31.05V30.45C16.0997 30.03 16.0997 29.8199 16.1815 29.6595C16.2534 29.5184 16.3681 29.4036 16.5093 29.3317C16.6697 29.25 16.8797 29.25 17.2997 29.25H19.3997C19.8198 29.25 20.0298 29.25 20.1902 29.3317C20.3314 29.4036 20.4461 29.5184 20.518 29.6595C20.5997 29.8199 20.5997 30.03 20.5997 30.45V31.05C20.5997 31.47 20.5997 31.6801 20.6815 31.8405C20.7534 31.9816 20.8681 32.0964 21.0093 32.1683C21.1697 32.25 21.3797 32.25 21.7997 32.25H24.6499C25.0699 32.25 25.2799 32.25 25.4403 32.1683C25.5815 32.0964 25.6962 31.9816 25.7681 31.8405C25.8499 31.6801 25.8499 31.47 25.8499 31.05V29.5865C25.8499 29.2834 25.8499 29.1319 25.893 29.0102C25.9344 28.8936 25.9864 28.812 26.0748 28.7254C26.167 28.635 26.3231 28.5625 26.6354 28.4175C28.1087 27.7335 29.3659 26.6626 30.2765 25.3352C30.4367 25.1018 30.5167 24.9851 30.6022 24.9162C30.684 24.8503 30.7574 24.8116 30.858 24.7815C30.9632 24.75 31.0881 24.75 31.338 24.75H32.1499C32.5699 24.75 32.7799 24.75 32.9403 24.6683C33.0815 24.5964 33.1962 24.4816 33.2681 24.3405C33.3499 24.1801 33.3499 23.97 33.3499 23.55V18.4286C33.3499 18.0287 33.3499 17.8288 33.2756 17.6746C33.2018 17.5215 33.0784 17.398 32.9253 17.3243C32.7711 17.25 32.5711 17.25 32.1712 17.25C31.8818 17.25 31.7371 17.25 31.6205 17.2107C31.4948 17.1683 31.4067 17.112 31.3155 17.0157C31.2309 16.9263 31.1618 16.777 31.0238 16.4782C30.5806 15.5193 29.9736 14.6517 29.2387 13.9111C29.0831 13.7542 29.0052 13.6757 28.9593 13.6003C28.9155 13.5283 28.89 13.4664 28.8704 13.3844C28.8499 13.2985 28.8499 13.2008 28.8499 13.0053V11.3409C28.8499 10.8008 28.8499 10.5308 28.7374 10.3493C28.6389 10.1903 28.4845 10.0738 28.3045 10.0228C28.0991 9.96449 27.8395 10.0387 27.3202 10.187L23.7613 11.2038C23.7009 11.2211 23.6706 11.2297 23.6399 11.2358C23.6126 11.2412 23.585 11.2451 23.5573 11.2474C23.526 11.25 23.4943 11.25 23.431 11.25H16.8497M7.84975 20.25H6.34985C4.693 20.25 3.34985 18.9069 3.34985 17.25C3.34985 16.1396 3.95315 15.1701 4.84985 14.6513M16.8497 11.25H22.7967C22.8317 11.005 22.8499 10.7546 22.8499 10.5C22.8499 7.60051 20.4993 5.25 17.5999 5.25C14.7004 5.25 12.3499 7.60051 12.3499 10.5C12.3499 11.1258 12.4593 11.726 12.6602 12.2826C13.9116 11.6232 15.337 11.25 16.8497 11.25Z" stroke="#8E9399" stroke-width="3" stroke-linecap="round" stroke-linejoin="round"/>
</svg>
