<svg width="37" height="37" viewBox="0 0 37 37" fill="none" xmlns="http://www.w3.org/2000/svg">
<path d="M8.3495 20.25C8.3495 15.2794 12.3789 11.25 17.3495 11.25M8.3495 20.25C8.3495 22.7226 9.34659 24.9623 10.9606 26.5889C11.1163 26.7458 11.1941 26.8243 11.2401 26.8997C11.2839 26.9717 11.3094 27.0336 11.329 27.1156C11.3495 27.2015 11.3495 27.2992 11.3495 27.4947V31.05C11.3495 31.47 11.3495 31.6801 11.4313 31.8405C11.5032 31.9816 11.6179 32.0964 11.759 32.1683C11.9194 32.25 12.1295 32.25 12.5495 32.25H15.3995C15.8195 32.25 16.0296 32.25 16.19 32.1683C16.3311 32.0964 16.4459 31.9816 16.5178 31.8405C16.5995 31.6801 16.5995 31.47 16.5995 31.05V30.45C16.5995 30.03 16.5995 29.8199 16.6813 29.6595C16.7532 29.5184 16.8679 29.4036 17.009 29.3317C17.1694 29.25 17.3795 29.25 17.7995 29.25H19.8995C20.3195 29.25 20.5296 29.25 20.69 29.3317C20.8311 29.4036 20.9459 29.5184 21.0178 29.6595C21.0995 29.8199 21.0995 30.03 21.0995 30.45V31.05C21.0995 31.47 21.0995 31.6801 21.1813 31.8405C21.2532 31.9816 21.3679 32.0964 21.509 32.1683C21.6694 32.25 21.8795 32.25 22.2995 32.25H25.1496C25.5696 32.25 25.7797 32.25 25.9401 32.1683C26.0812 32.0964 26.196 31.9816 26.2679 31.8405C26.3496 31.6801 26.3496 31.47 26.3496 31.05V29.5865C26.3496 29.2834 26.3496 29.1319 26.3928 29.0102C26.4341 28.8936 26.4862 28.812 26.5746 28.7254C26.6667 28.635 26.8229 28.5625 27.1351 28.4175C28.6085 27.7335 29.8657 26.6626 30.7763 25.3352C30.9364 25.1018 31.0165 24.9851 31.102 24.9162C31.1837 24.8503 31.2571 24.8116 31.3577 24.7815C31.4629 24.75 31.5879 24.75 31.8377 24.75H32.6496C33.0696 24.75 33.2797 24.75 33.4401 24.6683C33.5812 24.5964 33.696 24.4816 33.7679 24.3405C33.8496 24.1801 33.8496 23.97 33.8496 23.55V18.4286C33.8496 18.0287 33.8496 17.8288 33.7753 17.6746C33.7016 17.5215 33.5781 17.398 33.4251 17.3243C33.2708 17.25 33.0709 17.25 32.671 17.25C32.3815 17.25 32.2368 17.25 32.1202 17.2107C31.9945 17.1683 31.9064 17.112 31.8152 17.0157C31.7306 16.9263 31.6616 16.777 31.5235 16.4782C31.0803 15.5193 30.4733 14.6517 29.7385 13.9111C29.5828 13.7542 29.505 13.6757 29.4591 13.6003C29.4152 13.5283 29.3897 13.4664 29.3701 13.3844C29.3496 13.2985 29.3496 13.2008 29.3496 13.0053V11.3409C29.3496 10.8008 29.3496 10.5308 29.2371 10.3493C29.1386 10.1903 28.9842 10.0738 28.8043 10.0228C28.5989 9.96449 28.3392 10.0387 27.82 10.187L24.2611 11.2038C24.2006 11.2211 24.1704 11.2297 24.1396 11.2358C24.1123 11.2412 24.0847 11.2451 24.057 11.2474C24.0258 11.25 23.9941 11.25 23.9307 11.25H17.3495M8.3495 20.25H6.84961C5.19276 20.25 3.84961 18.9069 3.84961 17.25C3.84961 16.1396 4.45291 15.1701 5.34961 14.6513M17.3495 11.25H23.2964C23.3315 11.005 23.3496 10.7546 23.3496 10.5C23.3496 7.60051 20.9991 5.25 18.0996 5.25C15.2001 5.25 12.8496 7.60051 12.8496 10.5C12.8496 11.1258 12.9591 11.726 13.16 12.2826C14.4113 11.6232 15.8368 11.25 17.3495 11.25Z" stroke="#8E9399" stroke-width="3" stroke-linecap="round" stroke-linejoin="round"/>
</svg>
