<svg width="37" height="37" viewBox="0 0 37 37" fill="none" xmlns="http://www.w3.org/2000/svg">
<path d="M8.34999 20.25C8.34999 15.2794 12.3794 11.25 17.35 11.25M8.34999 20.25C8.34999 22.7226 9.34708 24.9623 10.9611 26.5889C11.1168 26.7458 11.1946 26.8243 11.2405 26.8997C11.2844 26.9717 11.3099 27.0336 11.3295 27.1156C11.35 27.2015 11.35 27.2992 11.35 27.4947V31.05C11.35 31.47 11.35 31.6801 11.4317 31.8405C11.5036 31.9816 11.6184 32.0964 11.7595 32.1683C11.9199 32.25 12.13 32.25 12.55 32.25H15.4C15.82 32.25 16.0301 32.25 16.1905 32.1683C16.3316 32.0964 16.4463 31.9816 16.5182 31.8405C16.6 31.6801 16.6 31.47 16.6 31.05V30.45C16.6 30.03 16.6 29.8199 16.6817 29.6595C16.7536 29.5184 16.8684 29.4036 17.0095 29.3317C17.1699 29.25 17.38 29.25 17.8 29.25H19.9C20.32 29.25 20.5301 29.25 20.6905 29.3317C20.8316 29.4036 20.9463 29.5184 21.0182 29.6595C21.1 29.8199 21.1 30.03 21.1 30.45V31.05C21.1 31.47 21.1 31.6801 21.1817 31.8405C21.2536 31.9816 21.3684 32.0964 21.5095 32.1683C21.6699 32.25 21.88 32.25 22.3 32.25H25.1501C25.5701 32.25 25.7802 32.25 25.9406 32.1683C26.0817 32.0964 26.1964 31.9816 26.2684 31.8405C26.3501 31.6801 26.3501 31.47 26.3501 31.05V29.5865C26.3501 29.2834 26.3501 29.1319 26.3932 29.0102C26.4346 28.8936 26.4867 28.812 26.575 28.7254C26.6672 28.635 26.8233 28.5625 27.1356 28.4175C28.6089 27.7335 29.8662 26.6626 30.7768 25.3352C30.9369 25.1018 31.017 24.9851 31.1025 24.9162C31.1842 24.8503 31.2576 24.8116 31.3582 24.7815C31.4634 24.75 31.5884 24.75 31.8382 24.75H32.6501C33.0701 24.75 33.2802 24.75 33.4406 24.6683C33.5817 24.5964 33.6964 24.4816 33.7684 24.3405C33.8501 24.1801 33.8501 23.97 33.8501 23.55V18.4286C33.8501 18.0287 33.8501 17.8288 33.7758 17.6746C33.7021 17.5215 33.5786 17.398 33.4256 17.3243C33.2713 17.25 33.0714 17.25 32.6715 17.25C32.382 17.25 32.2373 17.25 32.1207 17.2107C31.995 17.1683 31.9069 17.112 31.8157 17.0157C31.7311 16.9263 31.6621 16.777 31.524 16.4782C31.0808 15.5193 30.4738 14.6517 29.739 13.9111C29.5833 13.7542 29.5055 13.6757 29.4595 13.6003C29.4157 13.5283 29.3902 13.4664 29.3706 13.3844C29.3501 13.2985 29.3501 13.2008 29.3501 13.0053V11.3409C29.3501 10.8008 29.3501 10.5308 29.2376 10.3493C29.1391 10.1903 28.9847 10.0738 28.8048 10.0228C28.5994 9.96449 28.3397 10.0387 27.8204 10.187L24.2616 11.2038C24.2011 11.2211 24.1709 11.2297 24.1401 11.2358C24.1128 11.2412 24.0852 11.2451 24.0575 11.2474C24.0263 11.25 23.9946 11.25 23.9312 11.25H17.35M8.34999 20.25H6.8501C5.19324 20.25 3.8501 18.9069 3.8501 17.25C3.8501 16.1396 4.4534 15.1701 5.3501 14.6513M17.35 11.25H23.2969C23.332 11.005 23.3501 10.7546 23.3501 10.5C23.3501 7.60051 20.9996 5.25 18.1001 5.25C15.2006 5.25 12.8501 7.60051 12.8501 10.5C12.8501 11.1258 12.9596 11.726 13.1605 12.2826C14.4118 11.6232 15.8373 11.25 17.35 11.25Z" stroke="#8E9399" stroke-width="3" stroke-linecap="round" stroke-linejoin="round"/>
</svg>
