<svg width="80" height="81" viewBox="0 0 80 81" fill="none" xmlns="http://www.w3.org/2000/svg">
<path d="M39.6912 70.3711C56.1319 70.3711 69.4596 56.9997 69.4596 40.5052C69.4596 24.0107 56.1319 10.6392 39.6912 10.6392C23.2506 10.6392 9.92285 24.0107 9.92285 40.5052C9.92285 56.9997 23.2506 70.3711 39.6912 70.3711Z" stroke="#303F9F" stroke-width="3.30699" stroke-linecap="round" stroke-linejoin="round"/>
<path d="M39.6913 60.4158C41.7463 60.4158 43.4123 58.7443 43.4123 56.6825C43.4123 54.6207 41.7463 52.9493 39.6913 52.9493C37.6362 52.9493 35.9702 54.6207 35.9702 56.6825C35.9702 58.7443 37.6362 60.4158 39.6913 60.4158Z" fill="#303F9F"/>
<path d="M39.6912 45.4828V42.994C41.4085 42.994 43.0871 42.4831 44.5149 41.5259C45.9428 40.5688 47.0556 39.2083 47.7128 37.6166C48.3699 36.0249 48.5419 34.2734 48.2069 32.5837C47.8718 30.8939 47.0449 29.3418 45.8307 28.1235C44.6164 26.9053 43.0693 26.0757 41.3851 25.7396C39.7009 25.4034 37.9551 25.5759 36.3686 26.2353C34.7821 26.8946 33.4261 28.0111 32.472 29.4436C31.518 30.8761 31.0088 32.5602 31.0088 34.2831" stroke="#303F9F" stroke-width="3.30699" stroke-linecap="round" stroke-linejoin="round"/>
</svg>
