<svg width="208" height="71" viewBox="0 0 208 71" fill="none" xmlns="http://www.w3.org/2000/svg">
<g filter="url(#filter0_d_190_2119)">
<path d="M6.25 22.75C6.25 10.3236 16.3236 0.25 28.75 0.25H178.75C191.176 0.25 201.25 10.3236 201.25 22.75V36.25C201.25 48.6764 191.176 58.75 178.75 58.75H28.75C16.3236 58.75 6.25 48.6764 6.25 36.25V22.75Z" fill="#0D703A"/>
<path d="M28.75 1H178.75C190.762 1 200.5 10.7378 200.5 22.75V36.25C200.5 48.2622 190.762 58 178.75 58H28.75C16.7378 58 7 48.2622 7 36.25V22.75C7 10.7378 16.7378 1 28.75 1Z" stroke="#E6E6E6" stroke-width="1.5"/>
</g>
<defs>
<filter id="filter0_d_190_2119" x="0.25" y="0.25" width="207" height="70.5" filterUnits="userSpaceOnUse" color-interpolation-filters="sRGB">
<feFlood flood-opacity="0" result="BackgroundImageFix"/>
<feColorMatrix in="SourceAlpha" type="matrix" values="0 0 0 0 0 0 0 0 0 0 0 0 0 0 0 0 0 0 127 0" result="hardAlpha"/>
<feOffset dy="6"/>
<feGaussianBlur stdDeviation="3"/>
<feComposite in2="hardAlpha" operator="out"/>
<feColorMatrix type="matrix" values="0 0 0 0 0 0 0 0 0 0 0 0 0 0 0 0 0 0 0.25 0"/>
<feBlend mode="normal" in2="BackgroundImageFix" result="effect1_dropShadow_190_2119"/>
<feBlend mode="normal" in="SourceGraphic" in2="effect1_dropShadow_190_2119" result="shape"/>
</filter>
</defs>
</svg>
