<svg width="563" height="66" viewBox="0 0 563 66" fill="none" xmlns="http://www.w3.org/2000/svg">
<path opacity="0.35" d="M508 26.7501H533C534.795 26.7501 536.25 28.2051 536.25 30.0001V39.0001C536.25 40.795 534.795 42.2501 533 42.2501H508C506.205 42.2501 504.75 40.795 504.75 39.0001V30.0001C504.75 28.2051 506.205 26.7501 508 26.7501Z" stroke="white" stroke-width="1.5"/>
<path opacity="0.4" d="M538.5 31.5001V37.5001C539.707 36.9919 540.492 35.8098 540.492 34.5001C540.492 33.1904 539.707 32.0082 538.5 31.5001" fill="white"/>
<path d="M507 31.0001C507 29.8955 507.895 29.0001 509 29.0001H532C533.105 29.0001 534 29.8955 534 31.0001V38.0001C534 39.1046 533.105 40.0001 532 40.0001H509C507.895 40.0001 507 39.1046 507 38.0001V31.0001Z" fill="white"/>
<path fill-rule="evenodd" clip-rule="evenodd" d="M484.995 29.412C488.319 29.4122 491.516 30.6893 493.925 32.9795C494.106 33.1563 494.396 33.1541 494.575 32.9745L496.309 31.2245C496.399 31.1334 496.45 31.0101 496.449 30.8817C496.448 30.7533 496.396 30.6305 496.305 30.5405C489.982 24.4812 480.008 24.4812 473.685 30.5405C473.593 30.6305 473.541 30.7532 473.541 30.8816C473.54 31.01 473.59 31.1334 473.68 31.2245L475.415 32.9745C475.593 33.1544 475.884 33.1566 476.065 32.9795C478.474 30.6892 481.671 29.412 484.995 29.412ZM484.995 35.1055C486.822 35.1054 488.583 35.7842 489.936 37.01C490.12 37.184 490.408 37.1802 490.586 37.0015L492.318 35.2515C492.41 35.1597 492.46 35.0352 492.459 34.9058C492.458 34.7764 492.404 34.6529 492.311 34.563C488.189 30.7284 481.805 30.7284 477.683 34.563C477.59 34.6529 477.537 34.7765 477.535 34.9059C477.534 35.0353 477.585 35.1599 477.676 35.2515L479.408 37.0015C479.586 37.1802 479.875 37.184 480.058 37.01C481.411 35.785 483.17 35.1063 484.995 35.1055ZM488.465 38.9362C488.468 39.066 488.417 39.1911 488.324 39.282L485.328 42.3055C485.24 42.3944 485.12 42.4444 484.995 42.4444C484.871 42.4444 484.751 42.3944 484.663 42.3055L481.666 39.282C481.574 39.191 481.523 39.0659 481.526 38.9361C481.528 38.8064 481.585 38.6835 481.681 38.5965C483.594 36.9782 486.397 36.9782 488.31 38.5965C488.406 38.6836 488.462 38.8065 488.465 38.9362Z" fill="white"/>
<path fill-rule="evenodd" clip-rule="evenodd" d="M464.5 26.4999H463C462.172 26.4999 461.5 27.1715 461.5 27.9999V40.9999C461.5 41.8284 462.172 42.4999 463 42.4999H464.5C465.328 42.4999 466 41.8284 466 40.9999V27.9999C466 27.1715 465.328 26.4999 464.5 26.4999ZM456 30H457.5C458.328 30 459 30.6715 459 31.5V41C459 41.8284 458.328 42.5 457.5 42.5H456C455.172 42.5 454.5 41.8284 454.5 41V31.5C454.5 30.6715 455.172 30 456 30ZM450.5 33.4999H449C448.172 33.4999 447.5 34.1715 447.5 34.9999V40.9999C447.5 41.8284 448.172 42.4999 449 42.4999H450.5C451.328 42.4999 452 41.8284 452 40.9999V34.9999C452 34.1715 451.328 33.4999 450.5 33.4999ZM443.5 36.4999H442C441.172 36.4999 440.5 37.1715 440.5 37.9999V40.9999C440.5 41.8284 441.172 42.4999 442 42.4999H443.5C444.328 42.4999 445 41.8284 445 40.9999V37.9999C445 37.1715 444.328 36.4999 443.5 36.4999Z" fill="white"/>
<path d="M55.981 42.3845C60.0129 42.3845 62.408 39.2314 62.408 33.8921C62.408 31.8816 62.0234 30.1897 61.2874 28.8823C60.2217 26.8499 58.387 25.7512 56.0688 25.7512C52.6191 25.7512 50.1802 28.0693 50.1802 31.3213C50.1802 34.3755 52.3774 36.5947 55.3987 36.5947C57.2554 36.5947 58.7605 35.7268 59.5076 34.2217H59.5405C59.5405 34.2217 59.5845 34.2217 59.5955 34.2217C59.6174 34.2217 59.6943 34.2217 59.6943 34.2217C59.6943 37.8472 58.321 40.0115 56.0029 40.0115C54.6406 40.0115 53.5859 39.2644 53.2234 38.0669H50.3999C50.8723 40.6707 53.0806 42.3845 55.981 42.3845ZM56.0798 34.3425C54.2561 34.3425 52.9597 33.0461 52.9597 31.2334C52.9597 29.4646 54.322 28.1133 56.0908 28.1133C57.8596 28.1133 59.2219 29.4866 59.2219 31.2773C59.2219 33.0461 57.8926 34.3425 56.0798 34.3425Z" fill="white"/>
<path d="M67.0446 42.2307C68.0883 42.2307 68.8024 41.4836 68.8024 40.4949C68.8024 39.4951 68.0883 38.759 67.0446 38.759C66.0119 38.759 65.2868 39.4951 65.2868 40.4949C65.2868 41.4836 66.0119 42.2307 67.0446 42.2307ZM67.0446 33.991C68.0883 33.991 68.8024 33.2549 68.8024 32.2661C68.8024 31.2664 68.0883 30.5303 67.0446 30.5303C66.0119 30.5303 65.2868 31.2664 65.2868 32.2661C65.2868 33.2549 66.0119 33.991 67.0446 33.991Z" fill="white"/>
<path d="M79.0861 42H81.7997V39.0447H83.942V36.6497H81.7997V26.1467H77.8007C74.9992 30.3655 72.7689 33.8921 71.3407 36.5178V39.0447H79.0861V42ZM73.9665 36.5508C75.8122 33.2988 77.4601 30.6951 78.9762 28.4539H79.13V36.7156H73.9665V36.5508Z" fill="white"/>
<path d="M89.985 42H92.8194V26.1467H89.9959L85.8541 29.0471V31.7717L89.7982 29.0032H89.985V42Z" fill="white"/>
</svg>
