<svg width="563" height="66" viewBox="0 0 563 66" fill="none" xmlns="http://www.w3.org/2000/svg">
<path opacity="0.35" d="M505.25 30.0001C505.25 28.2051 506.705 26.7501 508.5 26.7501H533.5C535.295 26.7501 536.75 28.2051 536.75 30.0001V39.0001C536.75 40.795 535.295 42.2501 533.5 42.2501H508.5C506.705 42.2501 505.25 40.795 505.25 39.0001V30.0001Z" stroke="white" stroke-width="1.5"/>
<path opacity="0.4" d="M539 31.5001V37.5001C540.207 36.9919 540.992 35.8098 540.992 34.5001C540.992 33.1904 540.207 32.0082 539 31.5001Z" fill="white"/>
<path d="M507.5 31.0001C507.5 29.8955 508.395 29.0001 509.5 29.0001H532.5C533.605 29.0001 534.5 29.8955 534.5 31.0001V38.0001C534.5 39.1046 533.605 40.0001 532.5 40.0001H509.5C508.395 40.0001 507.5 39.1046 507.5 38.0001V31.0001Z" fill="white"/>
<path fill-rule="evenodd" clip-rule="evenodd" d="M485.495 29.412C488.819 29.4122 492.016 30.6893 494.425 32.9795C494.606 33.1563 494.896 33.1541 495.075 32.9745L496.809 31.2245C496.899 31.1334 496.95 31.0101 496.949 30.8817C496.948 30.7533 496.896 30.6305 496.805 30.5405C490.482 24.4812 480.508 24.4812 474.185 30.5405C474.093 30.6305 474.041 30.7532 474.041 30.8816C474.04 31.01 474.09 31.1334 474.18 31.2245L475.915 32.9745C476.093 33.1544 476.384 33.1566 476.565 32.9795C478.974 30.6892 482.171 29.412 485.495 29.412ZM485.495 35.1055C487.322 35.1054 489.083 35.7842 490.436 37.01C490.62 37.184 490.908 37.1802 491.086 37.0015L492.818 35.2515C492.91 35.1597 492.96 35.0352 492.959 34.9058C492.958 34.7764 492.905 34.6529 492.811 34.563C488.689 30.7284 482.305 30.7284 478.183 34.563C478.09 34.6529 478.037 34.7765 478.036 34.9059C478.034 35.0353 478.085 35.1599 478.176 35.2515L479.908 37.0015C480.086 37.1802 480.375 37.184 480.558 37.01C481.911 35.785 483.67 35.1063 485.495 35.1055ZM488.965 38.9362C488.968 39.066 488.917 39.1911 488.824 39.282L485.828 42.3055C485.74 42.3944 485.62 42.4444 485.495 42.4444C485.371 42.4444 485.251 42.3944 485.163 42.3055L482.166 39.282C482.074 39.191 482.023 39.0659 482.026 38.9361C482.028 38.8064 482.085 38.6835 482.181 38.5965C484.094 36.9782 486.897 36.9782 488.81 38.5965C488.906 38.6836 488.962 38.8065 488.965 38.9362Z" fill="white"/>
<path fill-rule="evenodd" clip-rule="evenodd" d="M465 26.4999H463.5C462.672 26.4999 462 27.1715 462 27.9999V40.9999C462 41.8284 462.672 42.4999 463.5 42.4999H465C465.828 42.4999 466.5 41.8284 466.5 40.9999V27.9999C466.5 27.1715 465.828 26.4999 465 26.4999ZM456.5 30H458C458.828 30 459.5 30.6715 459.5 31.5V41C459.5 41.8284 458.828 42.5 458 42.5H456.5C455.672 42.5 455 41.8284 455 41V31.5C455 30.6715 455.672 30 456.5 30ZM451 33.4999H449.5C448.672 33.4999 448 34.1715 448 34.9999V40.9999C448 41.8284 448.672 42.4999 449.5 42.4999H451C451.828 42.4999 452.5 41.8284 452.5 40.9999V34.9999C452.5 34.1715 451.828 33.4999 451 33.4999ZM444 36.4999H442.5C441.672 36.4999 441 37.1715 441 37.9999V40.9999C441 41.8284 441.672 42.4999 442.5 42.4999H444C444.828 42.4999 445.5 41.8284 445.5 40.9999V37.9999C445.5 37.1715 444.828 36.4999 444 36.4999Z" fill="white"/>
<circle cx="452" cy="16.5002" r="4.5" fill="#FF9500"/>
<path d="M56.481 42.3845C60.5129 42.3845 62.908 39.2314 62.908 33.8921C62.908 31.8816 62.5234 30.1897 61.7874 28.8823C60.7217 26.8499 58.887 25.7512 56.5688 25.7512C53.1191 25.7512 50.6802 28.0693 50.6802 31.3213C50.6802 34.3755 52.8774 36.5947 55.8987 36.5947C57.7554 36.5947 59.2605 35.7268 60.0076 34.2217H60.0405C60.0405 34.2217 60.0845 34.2217 60.0955 34.2217C60.1174 34.2217 60.1943 34.2217 60.1943 34.2217C60.1943 37.8472 58.821 40.0115 56.5029 40.0115C55.1406 40.0115 54.0859 39.2644 53.7234 38.0669H50.8999C51.3723 40.6707 53.5806 42.3845 56.481 42.3845ZM56.5798 34.3425C54.7561 34.3425 53.4597 33.0461 53.4597 31.2334C53.4597 29.4646 54.822 28.1133 56.5908 28.1133C58.3596 28.1133 59.7219 29.4866 59.7219 31.2773C59.7219 33.0461 58.3926 34.3425 56.5798 34.3425Z" fill="white"/>
<path d="M67.5446 42.2307C68.5883 42.2307 69.3024 41.4836 69.3024 40.4949C69.3024 39.4951 68.5883 38.759 67.5446 38.759C66.5119 38.759 65.7868 39.4951 65.7868 40.4949C65.7868 41.4836 66.5119 42.2307 67.5446 42.2307ZM67.5446 33.991C68.5883 33.991 69.3024 33.2549 69.3024 32.2661C69.3024 31.2664 68.5883 30.5303 67.5446 30.5303C66.5119 30.5303 65.7868 31.2664 65.7868 32.2661C65.7868 33.2549 66.5119 33.991 67.5446 33.991Z" fill="white"/>
<path d="M79.5861 42H82.2997V39.0447H84.442V36.6497H82.2997V26.1467H78.3007C75.4992 30.3655 73.2689 33.8921 71.8407 36.5178V39.0447H79.5861V42ZM74.4665 36.5508C76.3122 33.2988 77.9601 30.6951 79.4762 28.4539H79.63V36.7156H74.4665V36.5508Z" fill="white"/>
<path d="M90.485 42H93.3194V26.1467H90.4959L86.3541 29.0471V31.7717L90.2982 29.0032H90.485V42Z" fill="white"/>
</svg>
