<svg width="46" height="47" viewBox="0 0 46 47" fill="none" xmlns="http://www.w3.org/2000/svg">
<path d="M29.9 42.3H36.8C38.02 42.3 39.19 41.8048 40.0527 40.9234C40.9154 40.042 41.4 38.8465 41.4 37.6V30.55C41.4 29.9267 41.6423 29.329 42.0737 28.8883C42.505 28.4476 43.09 28.2 43.7 28.2C44.31 28.2 44.895 28.4476 45.3263 28.8883C45.7577 29.329 46 29.9267 46 30.55V37.6C46 40.093 45.0307 42.484 43.3054 44.2468C41.58 46.0096 39.24 47 36.8 47H9.2C6.76001 47 4.41995 46.0096 2.69462 44.2468C0.969283 42.484 0 40.093 0 37.6V30.55C0 29.9267 0.242321 29.329 0.673654 28.8883C1.10499 28.4476 1.69 28.2 2.3 28.2C2.91 28.2 3.49501 28.4476 3.92635 28.8883C4.35768 29.329 4.6 29.9267 4.6 30.55V37.6C4.6 38.8465 5.08464 40.042 5.94731 40.9234C6.80998 41.8048 7.98 42.3 9.2 42.3H16.1C16.71 42.3 17.295 42.5476 17.7263 42.9883C18.1577 43.429 18.4 44.0267 18.4 44.65C18.4 45.2733 18.1577 45.871 17.7263 46.3117C17.295 46.7524 16.71 47 16.1 47H29.9C29.29 47 28.705 46.7524 28.2737 46.3117C27.8423 45.871 27.6 45.2733 27.6 44.65C27.6 44.0267 27.8423 43.429 28.2737 42.9883C28.705 42.5476 29.29 42.3 29.9 42.3V42.3ZM4.6 16.45C4.6 17.0733 4.35768 17.671 3.92635 18.1117C3.49501 18.5524 2.91 18.8 2.3 18.8C1.69 18.8 1.10499 18.5524 0.673654 18.1117C0.242321 17.671 0 17.0733 0 16.45V9.4C0 6.90696 0.969283 4.51604 2.69462 2.7532C4.41995 0.990354 6.76001 0 9.2 0L16.1 0C16.71 0 17.295 0.247589 17.7263 0.688299C18.1577 1.12901 18.4 1.72674 18.4 2.35C18.4 2.97326 18.1577 3.57099 17.7263 4.0117C17.295 4.45241 16.71 4.7 16.1 4.7H9.2C7.98 4.7 6.80998 5.19518 5.94731 6.0766C5.08464 6.95802 4.6 8.15348 4.6 9.4V16.45ZM41.4 16.45V9.4C41.4 8.15348 40.9154 6.95802 40.0527 6.0766C39.19 5.19518 38.02 4.7 36.8 4.7H29.9C29.29 4.7 28.705 4.45241 28.2737 4.0117C27.8423 3.57099 27.6 2.97326 27.6 2.35C27.6 1.72674 27.8423 1.12901 28.2737 0.688299C28.705 0.247589 29.29 0 29.9 0L36.8 0C39.24 0 41.58 0.990354 43.3054 2.7532C45.0307 4.51604 46 6.90696 46 9.4V16.45C46 17.0733 45.7577 17.671 45.3263 18.1117C44.895 18.5524 44.31 18.8 43.7 18.8C43.09 18.8 42.505 18.5524 42.0737 18.1117C41.6423 17.671 41.4 17.0733 41.4 16.45Z" fill="#FFFBFB"/>
</svg>
