<svg width="51" height="52" viewBox="0 0 51 52" fill="none" xmlns="http://www.w3.org/2000/svg">
<g filter="url(#filter0_i_166_1816)">
<path d="M25.5 25.9312C32.5444 25.9312 38.25 20.2255 38.25 13.1812C38.25 6.13678 32.5444 0.431152 25.5 0.431152C18.4556 0.431152 12.75 6.13678 12.75 13.1812C12.75 20.2255 18.4556 25.9312 25.5 25.9312ZM25.5 32.3062C16.9894 32.3062 0 36.5774 0 45.0562V51.4312H51V45.0562C51 36.5774 34.0106 32.3062 25.5 32.3062Z" fill="#85BB24"/>
</g>
<path d="M37.75 13.1812C37.75 19.9494 32.2682 25.4312 25.5 25.4312C18.7318 25.4312 13.25 19.9494 13.25 13.1812C13.25 6.41292 18.7318 0.931152 25.5 0.931152C32.2682 0.931152 37.75 6.41292 37.75 13.1812ZM0.5 45.0562C0.5 43.1201 1.46587 41.3873 3.12668 39.8544C4.79089 38.3185 7.11938 37.0174 9.74445 35.9658C14.9954 33.8622 21.3072 32.8062 25.5 32.8062C29.6928 32.8062 36.0046 33.8622 41.2555 35.9658C43.8806 37.0174 46.2091 38.3185 47.8733 39.8544C49.5341 41.3873 50.5 43.1201 50.5 45.0562V50.9312H0.5V45.0562Z" stroke="#A5A5A8"/>
<defs>
<filter id="filter0_i_166_1816" x="0" y="0.431152" width="51" height="55" filterUnits="userSpaceOnUse" color-interpolation-filters="sRGB">
<feFlood flood-opacity="0" result="BackgroundImageFix"/>
<feBlend mode="normal" in="SourceGraphic" in2="BackgroundImageFix" result="shape"/>
<feColorMatrix in="SourceAlpha" type="matrix" values="0 0 0 0 0 0 0 0 0 0 0 0 0 0 0 0 0 0 127 0" result="hardAlpha"/>
<feOffset dy="4"/>
<feGaussianBlur stdDeviation="2"/>
<feComposite in2="hardAlpha" operator="arithmetic" k2="-1" k3="1"/>
<feColorMatrix type="matrix" values="0 0 0 0 0 0 0 0 0 0 0 0 0 0 0 0 0 0 0.25 0"/>
<feBlend mode="normal" in2="shape" result="effect1_innerShadow_166_1816"/>
</filter>
</defs>
</svg>
