<svg width="108" height="102" viewBox="0 0 108 102" fill="none" xmlns="http://www.w3.org/2000/svg">
<path d="M69.7667 91.58H85.8667C88.8368 91.58 91.6907 90.4678 93.7993 88.4797C95.9089 86.4907 97.1 83.7864 97.1 80.96V65.78C97.1 64.5804 97.6051 63.4236 98.5149 62.5658C99.4256 61.7072 100.667 61.22 101.967 61.22C103.267 61.22 104.508 61.7072 105.418 62.5658C106.328 63.4236 106.833 64.5804 106.833 65.78V80.96C106.833 86.1856 104.632 91.2035 100.703 94.908C96.7728 98.6135 91.4366 100.7 85.8667 100.7H69.7667C68.4668 100.7 67.2256 100.213 66.3149 99.3542C65.4051 98.4964 64.9 97.3396 64.9 96.14C64.9 94.9404 65.4051 93.7836 66.3149 92.9258C67.2256 92.0671 68.4668 91.58 69.7667 91.58ZM37.5667 100.7H21.4667C15.8968 100.7 10.5605 98.6135 6.63045 94.908C2.70139 91.2035 0.5 86.1856 0.5 80.96V65.78C0.5 64.5804 1.00514 63.4236 1.91487 62.5658C2.82559 61.7071 4.06676 61.22 5.36667 61.22C6.66657 61.22 7.90774 61.7071 8.81847 62.5658C9.72819 63.4236 10.2333 64.5804 10.2333 65.78V80.96C10.2333 83.7864 11.4244 86.4907 13.534 88.4797C15.6427 90.4678 18.4966 91.58 21.4667 91.58H37.5667C38.8666 91.58 40.1077 92.0671 41.0185 92.9258C41.9282 93.7836 42.4333 94.9404 42.4333 96.14C42.4333 97.3396 41.9282 98.4964 41.0185 99.3542C40.1077 100.213 38.8666 100.7 37.5667 100.7ZM10.2333 35.42C10.2333 36.6196 9.72819 37.7764 8.81847 38.6342C7.90774 39.4928 6.66657 39.98 5.36667 39.98C4.06676 39.98 2.82559 39.4928 1.91487 38.6342C1.00514 37.7764 0.5 36.6196 0.5 35.42V20.24C0.5 15.0144 2.70139 9.9965 6.63045 6.29195C10.5605 2.58647 15.8968 0.5 21.4667 0.5H37.5667C38.8666 0.5 40.1077 0.987151 41.0185 1.84583C41.9282 2.70358 42.4333 3.86042 42.4333 5.06C42.4333 6.25958 41.9282 7.41642 41.0185 8.27417C40.1077 9.13285 38.8666 9.62 37.5667 9.62H21.4667C18.4966 9.62 15.6427 10.7322 13.534 12.7203C11.4244 14.7093 10.2333 17.4136 10.2333 20.24V35.42ZM97.1 35.42V20.24C97.1 17.4136 95.9089 14.7093 93.7993 12.7203C91.6907 10.7322 88.8368 9.62 85.8667 9.62H69.7667C68.4668 9.62 67.2256 9.13285 66.3149 8.27417C65.4051 7.41642 64.9 6.25958 64.9 5.06C64.9 3.86042 65.4051 2.70358 66.3149 1.84583C67.2256 0.987151 68.4668 0.5 69.7667 0.5H85.8667C91.4366 0.5 96.7728 2.58647 100.703 6.29195C104.632 9.9965 106.833 15.0144 106.833 20.24V35.42C106.833 36.6196 106.328 37.7764 105.418 38.6342C104.508 39.4928 103.267 39.98 101.967 39.98C100.667 39.98 99.4256 39.4928 98.5149 38.6342C97.6051 37.7764 97.1 36.6196 97.1 35.42Z" fill="#FFFBFB" stroke="black"/>
</svg>
